<svg width="188" height="53" viewBox="0 0 188 53" fill="none" xmlns="http://www.w3.org/2000/svg">
<g clip-path="url(#clip0_2_53)">
<path d="M44.3585 47.6297C44.2748 47.6848 44.1886 47.7123 44.0987 47.7123C43.9659 47.7123 43.8505 47.6648 43.7536 47.5697C43.6562 47.4743 43.6075 47.3494 43.6075 47.1949C43.6075 47.0503 43.6495 46.9272 43.7334 46.8257C43.8171 46.7241 43.9317 46.6733 44.0772 46.6733C44.1702 46.6733 44.2506 46.6924 44.3187 46.7307C44.4298 46.793 44.4988 46.9017 44.5257 47.0567L44.3021 47.0532C44.2886 46.9811 44.2603 46.933 44.2166 46.9081C44.1808 46.8851 44.1391 46.8731 44.0965 46.8735C44.0307 46.8735 43.9766 46.9008 43.9346 46.9547C43.8927 47.009 43.8718 47.0909 43.8718 47.2C43.8718 47.3086 43.8948 47.3874 43.9413 47.4364C43.9877 47.4856 44.0432 47.51 44.1082 47.51C44.1677 47.51 44.2128 47.4938 44.2433 47.4614C44.2737 47.4289 44.2936 47.3878 44.3021 47.3388H44.5195C44.4959 47.4772 44.4424 47.5743 44.3585 47.6297V47.6297ZM43.5625 46.6842C43.4228 46.827 43.3531 46.9964 43.3531 47.1924C43.3531 47.3956 43.4241 47.5683 43.5662 47.7098C43.7075 47.8524 43.8778 47.9233 44.0774 47.9233C44.2766 47.9233 44.4466 47.8517 44.5874 47.7089C44.6557 47.6416 44.7097 47.5611 44.7461 47.4723C44.7824 47.3836 44.8004 47.2883 44.799 47.1924C44.799 46.9973 44.7289 46.8279 44.5885 46.6842C44.4469 46.5381 44.2766 46.4651 44.0772 46.4651C43.8762 46.4651 43.7046 46.5381 43.5624 46.6842H43.5625ZM44.6907 47.822C44.5204 47.987 44.3159 48.0693 44.0774 48.0693C43.8311 48.0693 43.6231 47.985 43.4546 47.816C43.2854 47.6471 43.201 47.4392 43.201 47.1924C43.201 46.9361 43.2925 46.723 43.4745 46.5534C43.6457 46.3944 43.8469 46.3152 44.0774 46.3152C44.3192 46.3152 44.5257 46.4008 44.6967 46.5726C44.8679 46.7438 44.9538 46.9503 44.9538 47.1924C44.9538 47.4415 44.8661 47.6513 44.6907 47.822V47.822ZM46.5638 38.4057C46.5604 38.3218 46.5534 38.2381 46.5428 38.1549C46.5365 38.1027 46.5268 38.051 46.5137 38C46.4934 37.8833 46.464 37.7683 46.4259 37.6562L46.4249 37.6542C46.3433 37.4214 46.219 37.2058 46.0585 37.0185C45.9056 36.8419 45.7215 36.695 45.5154 36.5851L45.5091 36.5814C45.3243 36.4855 45.1264 36.4175 44.9218 36.3796C44.8681 36.37 44.8183 36.3651 44.7684 36.3592C45.0013 35.3606 44.7098 34.598 44.5215 34.2416C44.5361 34.2274 44.5514 34.2134 44.5652 34.1999C44.8139 33.9595 45.0251 33.7296 45.2031 33.4987L45.2365 33.4524C45.3663 33.2658 45.4667 33.0604 45.5342 32.8434C45.5796 32.6957 45.6104 32.544 45.6261 32.3902L45.6279 32.3904L45.6292 32.3822L45.6301 32.3627L45.6359 32.3205H45.6324L45.635 32.2731H45.6362L45.6368 32.2447C45.6379 32.2167 45.6386 32.1877 45.6386 32.1569C45.6401 32.1005 45.6397 32.0418 45.6368 31.9774C45.6231 31.6681 45.5673 31.266 45.3644 30.8307C45.2546 30.5951 45.1103 30.3772 44.9365 30.1841C44.7399 29.9669 44.5092 29.7835 44.2533 29.641L44.2548 29.6417C44.2355 29.6308 44.2202 29.6204 44.2024 29.61C43.6499 28.7955 43.0187 28.1643 42.4591 27.6853C42.203 27.4671 41.9388 27.2587 41.6669 27.0606C41.4382 26.8925 41.2454 26.7595 41.138 26.6799L41.1391 26.6805C40.893 26.4998 40.71 26.391 40.6224 26.3417C40.4205 26.2189 40.2708 26.1209 40.1802 26.0525C40.1379 26.022 40.0984 25.9879 40.0621 25.9507L40.0553 25.9417C40.0541 25.9399 40.0462 25.9246 40.0357 25.8702C40.0244 25.8157 40.0122 25.7226 40.0069 25.5882C39.9975 25.3769 40.0048 25.0673 40.0281 24.6584C40.0648 24.0009 40.1396 23.0939 40.2167 21.8646C40.2422 21.4735 40.2458 21.1051 40.2316 20.7579C40.2085 20.2013 40.1367 19.6972 40.0204 19.2401L40.02 19.2375C39.9946 19.1337 39.9647 19.0317 39.9336 18.931L39.9331 18.9301L39.9325 18.9288C39.9091 18.8538 39.8885 18.7971 39.8758 18.761L39.8767 18.7631C39.8531 18.6958 39.8282 18.629 39.8021 18.5627L39.8012 18.56C39.7879 18.5272 39.7712 18.4851 39.749 18.4327L39.7484 18.4314L39.7481 18.4307C39.7024 18.3218 39.6521 18.215 39.5974 18.1105L39.5812 18.0799L39.551 18.0256L39.5294 17.9892C39.4219 17.8123 39.3036 17.6422 39.1751 17.4799C39.0865 17.08 38.9692 16.6869 38.8242 16.3037C38.6643 15.8854 38.4499 15.4211 38.1452 14.9633C38.0353 14.8006 37.9159 14.6447 37.7875 14.4963L37.8312 14.4507C37.8928 14.3863 39.3567 12.8516 40.5031 10.86C42.6394 7.14786 41.9282 4.87833 40.9559 3.62818L40.9283 3.59321L40.8992 3.56043C39.9615 2.51719 38.6865 1.88847 37.1091 1.6925C33.8424 1.2858 30.1484 2.89037 29.1797 3.34679L27.4191 1.39982L27.4124 1.39253C27.2573 1.22237 27.0851 1.06863 26.8986 0.933743C26.7114 0.799063 26.5119 0.682579 26.3026 0.585874C25.8818 0.390265 25.4202 0.268056 24.929 0.20686C23.9434 0.0853788 22.8372 0.203217 21.6339 0.512111C19.8305 0.977819 17.8052 1.87973 15.6882 3.151C13.5723 4.42264 11.3672 6.06527 9.22637 8.02008C6.61013 10.4085 4.44927 12.934 2.87479 15.3308C2.08809 16.5294 1.44749 17.6961 0.971548 18.8028C0.496512 19.9101 0.184127 20.9568 0.063685 21.9254C-0.0236445 22.6293 -0.0096354 23.2945 0.131547 23.9077C0.192149 24.1729 0.280513 24.431 0.395173 24.6777C0.539571 24.9924 0.731181 25.2831 0.963361 25.5398L0.969183 25.546L3.01779 27.694L3.00596 27.7144C2.98377 27.7532 2.96303 27.7925 2.94119 27.8319C2.90972 27.8902 2.87788 27.9483 2.8475 28.0071C2.82712 28.0475 2.80729 28.0876 2.788 28.1282C2.70934 28.2888 2.63676 28.4524 2.57041 28.6185L2.52165 28.7425C2.49781 28.8059 2.47507 28.8709 2.45233 28.935C2.43814 28.9769 2.42358 29.0188 2.41012 29.0607C2.38865 29.1263 2.369 29.1926 2.34917 29.2592C2.34371 29.2778 2.33753 29.2957 2.33225 29.3142C2.32552 29.3377 2.31933 29.3616 2.31297 29.3851C2.29386 29.4532 2.27713 29.5222 2.26021 29.5913C2.25038 29.6324 2.23965 29.6739 2.23 29.7158L2.2109 29.8069C2.20199 29.8493 2.19434 29.892 2.18579 29.9351C2.17852 29.9737 2.16996 30.0125 2.16341 30.0515C2.14813 30.1382 2.13558 30.2264 2.12339 30.3138C2.12011 30.3398 2.1152 30.3651 2.11211 30.3912L2.1112 30.3985L2.1092 30.4221C2.10228 30.4791 2.09737 30.5369 2.09119 30.5952C2.08282 30.6855 2.07554 30.7764 2.07063 30.868C2.06772 30.9081 2.0659 30.9489 2.06408 30.9897C2.0628 31.0212 2.06044 31.0521 2.05935 31.0838C2.05753 31.1476 2.05844 31.2122 2.05807 31.2772C2.05807 31.3157 2.05771 31.3545 2.05807 31.3938C2.05844 31.4169 2.05771 31.4399 2.05807 31.463V31.4763C2.05935 31.5178 2.06098 31.5595 2.06189 31.6007C2.06408 31.6466 2.06826 31.6912 2.07099 31.7364C2.07299 31.7701 2.0739 31.8038 2.0759 31.8369C2.07881 31.8668 2.08027 31.8892 2.08227 31.9085C2.08591 31.9509 2.09009 31.9941 2.09464 32.0362C2.09901 32.085 2.10429 32.1371 2.11156 32.1965L2.11211 32.2016V32.2006L2.12011 32.2577C2.12666 32.3057 2.13431 32.3542 2.14158 32.4019C2.1474 32.4451 2.15505 32.4932 2.16487 32.5536L2.17688 32.6155C2.18234 32.6447 2.18834 32.6735 2.1938 32.7021L2.19434 32.7042L2.19507 32.7082L2.2029 32.745C2.21017 32.7847 2.22018 32.8346 2.23546 32.9029L2.24638 32.9488C2.25729 32.9922 2.2653 33.0248 2.2713 33.0477L2.28204 33.0918C2.28568 33.1064 2.28931 33.1195 2.29423 33.1401L2.30478 33.1807L2.31388 33.2146L2.32188 33.2453L2.33371 33.2854L2.34481 33.3271C2.35463 33.3597 2.36536 33.3918 2.37519 33.4244C2.38701 33.4623 2.40193 33.5127 2.42395 33.5803L2.42031 33.5694L2.42449 33.5821C2.42959 33.5981 2.43377 33.6087 2.4385 33.6222C2.45815 33.6785 2.4738 33.7214 2.48162 33.7437L2.4829 33.7462V33.7466C2.49563 33.7834 2.51473 33.8373 2.54166 33.9074L2.54202 33.9085L2.54239 33.9101L2.54202 33.9083L2.54421 33.9149L2.5433 33.9118L2.55512 33.9407C2.57204 33.9839 2.58569 34.0172 2.59697 34.0429L2.61007 34.0757L2.61225 34.0811C2.63292 34.1315 2.65415 34.1817 2.67593 34.2316L2.67466 34.2289L2.68921 34.2602C2.70286 34.2902 2.71523 34.3185 2.72669 34.3414C2.73761 34.3636 2.7467 34.3835 2.75453 34.3997L2.75344 34.3971L2.75489 34.4006L2.75616 34.4033L2.75489 34.4006C2.77217 34.4365 2.79292 34.4826 2.82203 34.5401L2.82421 34.5456L2.82603 34.5485L2.83822 34.5725C2.85059 34.5962 2.86242 34.6192 2.87315 34.639C2.88807 34.6676 2.90171 34.6918 2.91227 34.7124L2.91445 34.7171C2.93028 34.7457 2.95229 34.788 2.98213 34.8421L2.98413 34.8457L2.98631 34.8497L2.99869 34.8705C3.01106 34.8924 3.02288 34.9131 3.03398 34.9319C3.05327 34.9643 3.0711 34.9933 3.08492 35.0175L3.08929 35.0242L3.0902 35.0262C3.10475 35.0499 3.12695 35.0872 3.15824 35.1375L3.16115 35.1422L3.17025 35.1568C3.18553 35.181 3.20045 35.2042 3.2141 35.2253C3.23666 35.2584 3.25649 35.2887 3.27359 35.3145L3.27068 35.3102C3.28942 35.3377 3.31489 35.377 3.34982 35.4265L3.35255 35.4307L3.35419 35.4338L3.3511 35.4285L3.35474 35.434L3.35746 35.438L3.35655 35.4373L3.35783 35.4391L3.35837 35.4395C3.37475 35.463 3.39149 35.4859 3.40822 35.5092C3.43115 35.5415 3.45316 35.5712 3.47281 35.5974L3.47154 35.5956C3.49028 35.6211 3.51375 35.6528 3.54195 35.6903L3.54813 35.6983C3.5696 35.7261 3.58998 35.752 3.60999 35.7773C3.63583 35.8097 3.66057 35.8402 3.68349 35.8684L3.69132 35.8782C3.70696 35.8974 3.72534 35.9201 3.75008 35.9491L3.761 35.9622L3.76064 35.9624L3.76427 35.9669L3.77082 35.9738C3.80776 36.0172 3.84105 36.0545 3.87435 36.0917L3.90964 36.1323L3.91001 36.1328L3.91146 36.1343L3.91419 36.137L3.91328 36.1365C3.92984 36.1547 3.95003 36.1778 3.97514 36.2044L3.98314 36.2133V36.2139L3.9846 36.215L3.98951 36.2199L3.98824 36.2188C4.02826 36.2622 4.06756 36.302 4.10704 36.3423C4.12342 36.3587 4.13943 36.3769 4.15598 36.3927L4.1578 36.3946C4.16635 36.4028 4.18546 36.4228 4.21639 36.4538L4.22239 36.4592L4.24004 36.4776C4.28752 36.5242 4.33719 36.569 4.38632 36.6144L4.3976 36.6257L4.40087 36.6282L4.40196 36.6293L4.40378 36.6312C4.41652 36.6423 4.43653 36.661 4.46582 36.6874L4.46891 36.6907C4.53117 36.7458 4.59425 36.8 4.65813 36.8532L4.66177 36.8563L4.69743 36.8858L4.72162 36.9056L4.7209 36.9047L4.75728 36.9337C4.81059 36.9763 4.86281 37.0175 4.9132 37.0561L4.9274 37.0674L4.93394 37.0721C4.95323 37.0865 4.96742 37.0969 4.97524 37.1031L4.98507 37.1107L4.99271 37.116C5.00727 37.1266 5.02182 37.1368 5.0371 37.1475C5.08168 37.1797 5.12625 37.2112 5.17119 37.2424L5.20903 37.269L5.2134 37.2721L5.26016 37.3039L5.26216 37.3049L5.28599 37.3202C5.33148 37.3509 5.38024 37.3812 5.42827 37.4121C5.45374 37.4283 5.47666 37.4436 5.50304 37.4597L5.54398 37.4846L5.56708 37.4981L5.58218 37.5072C5.65732 37.5522 5.72773 37.5928 5.79232 37.6285L5.79851 37.6316L5.83853 37.6535L5.84144 37.6556C5.93059 37.7032 6.01556 37.7467 6.09579 37.7868L6.10962 37.7933L6.15347 37.8145L6.15383 37.8139C6.19731 37.835 6.23934 37.8533 6.28246 37.8726C6.30247 37.882 6.32303 37.8913 6.34323 37.9002C6.36761 37.9112 6.39308 37.9243 6.41746 37.9347L6.4382 37.9436L6.4442 37.946L6.45402 37.9503C6.49587 37.968 6.53662 37.9831 6.57774 37.9999L6.59885 38.0079C6.64506 38.0265 6.69145 38.0461 6.73748 38.0634L6.7484 38.0674L6.7826 38.0798C6.80425 38.0875 6.82645 38.0944 6.8481 38.1022L6.86866 38.109C6.9347 38.1326 7.00093 38.1567 7.06824 38.1782L7.08407 38.1831L7.08989 38.1849L7.09208 38.1862C7.1956 38.2184 7.29894 38.2481 7.4021 38.276L7.4061 38.2771L7.42357 38.2814L7.41756 38.2802C7.50871 38.304 7.59859 38.3246 7.68737 38.3446H7.68846L7.72139 38.3534L7.75596 38.3607C7.84075 38.3792 7.92698 38.3942 8.01413 38.4093L8.03869 38.416L8.09982 38.4253C8.15222 38.4339 8.20462 38.4406 8.25702 38.4477L8.27958 38.5093L8.28049 38.5122C8.42429 38.9053 8.57931 39.2942 8.74533 39.6784C11.2026 46.4853 17.995 51.7622 25.7458 52.7269C33.4973 53.6917 41.7712 48.5343 45.1421 41.5651C45.282 41.3082 45.415 41.0476 45.5409 40.7836C45.8751 40.439 46.1348 40.0816 46.3072 39.7028C46.5135 39.2577 46.583 38.789 46.5638 38.4057" fill="#59473D"/>
<path d="M39.7473 18.4287L39.748 18.4305L39.7484 18.4313L39.7473 18.4287M5.5445 37.485L5.54396 37.4847H5.54359L5.5445 37.485ZM3.34944 35.4262L3.3498 35.4271V35.4266L3.34944 35.4264M3.35053 35.4284L3.35108 35.4286L3.3498 35.4271L3.35053 35.4284ZM2.32259 33.2485L2.32186 33.2454L2.32131 33.2447L2.32259 33.2485ZM2.23562 32.9041L2.23544 32.903L2.23508 32.9024L2.23562 32.9043M3.5492 35.6994L3.55175 35.7027L3.54811 35.6983L3.54611 35.6956L3.5492 35.6996" fill="#59473D"/>
<path d="M39.934 4.38693C39.5586 3.96913 39.1243 3.6544 38.6528 3.42128C38.5658 3.38797 38.4777 3.35784 38.3886 3.33094C38.3449 3.3018 38.3002 3.27448 38.2549 3.24771C37.8377 3.0878 37.3963 2.98343 36.9424 2.92497C34.6904 2.63484 32.1265 3.45552 30.6603 4.03834C30.5799 4.07203 30.4989 4.10572 30.4169 4.14033C30.0754 4.28628 29.7364 4.43778 29.3998 4.59474C29.3682 4.60931 29.3365 4.62461 29.3051 4.63955L28.7274 3.96767L28.5618 3.77497L28.4903 3.69119L26.979 1.93473L26.8478 1.7821L26.6853 1.5936L26.6564 1.59997L26.2289 1.69686L25.7353 1.80869C25.4624 1.68193 25.1382 1.59141 24.7628 1.5446C24.0111 1.4499 23.0566 1.53695 21.9694 1.81835C20.8819 2.09773 19.6628 2.56763 18.3698 3.21237C15.7835 4.5004 12.9044 6.48617 10.1339 9.01633C9.19549 9.87196 8.2956 10.7689 7.43683 11.7046C6.66328 12.5455 5.9287 13.4216 5.23539 14.33C3.89398 16.0925 2.86585 17.8067 2.20924 19.3357C1.77078 20.3545 1.49951 21.2907 1.40035 22.0918C1.32721 22.6743 1.34632 23.1837 1.44384 23.6046C1.47531 23.7407 1.51716 23.8645 1.56428 23.9827C1.66234 24.2315 1.79115 24.4459 1.95744 24.6293L3.63362 26.3874L3.81338 26.5755L3.8252 26.5628C3.87615 26.5036 3.92873 26.4444 3.98167 26.3867L3.99604 26.3714C4.01533 26.3504 4.03534 26.3309 4.05481 26.3111C4.10503 26.2581 4.15603 26.2059 4.20782 26.1545C4.24002 26.1226 4.27259 26.092 4.30552 26.061C4.33736 26.031 4.36847 25.9996 4.40085 25.97C4.41541 25.9567 4.43051 25.9445 4.44543 25.9312C4.47945 25.9002 4.51474 25.8698 4.55004 25.8392C4.62791 25.7714 4.70732 25.7055 4.78819 25.6414L4.80129 25.6312C4.888 25.5634 4.97595 25.4972 5.0651 25.4327C5.12096 25.393 5.1779 25.3534 5.23539 25.3148C5.26996 25.2917 5.30398 25.2686 5.33873 25.246C5.3975 25.2077 5.45754 25.1706 5.51758 25.134C5.55269 25.1127 5.58671 25.0915 5.62146 25.0713C5.68441 25.0343 5.74827 24.9994 5.81177 24.9644C5.84579 24.9462 5.87927 24.9271 5.91329 24.909L5.9515 24.889L5.95732 24.8855C6.01135 24.8577 6.06648 24.832 6.12142 24.8054C6.15235 24.7908 6.18165 24.7754 6.21312 24.7612C6.25897 24.7393 6.30591 24.7193 6.35267 24.6989C6.39306 24.6812 6.43326 24.6632 6.47438 24.646L6.51968 24.626C6.62311 24.5838 6.72751 24.5439 6.8328 24.5065C6.86609 24.4945 6.90066 24.4843 6.93414 24.4727C6.97052 24.4606 7.00655 24.4484 7.04348 24.4368L7.08605 24.4222C7.10788 24.4155 7.12972 24.408 7.15137 24.4016C7.19631 24.3883 7.24179 24.3765 7.28673 24.3634L7.3202 24.3543C7.37242 24.3393 7.42445 24.3248 7.47722 24.3115C7.52634 24.2987 7.57546 24.2882 7.62531 24.2769C7.68646 24.2626 7.74778 24.249 7.80925 24.2361C7.83509 24.2312 7.86056 24.2255 7.88639 24.2204C7.91204 24.2157 7.93879 24.2118 7.96462 24.2071C8.02503 24.1962 8.08598 24.186 8.14656 24.1765C8.20041 24.1685 8.2539 24.1614 8.30757 24.1539C8.35106 24.1485 8.39363 24.1425 8.43675 24.1375C8.4544 24.1357 8.47186 24.1344 8.48951 24.133C8.50934 24.1306 8.52826 24.1277 8.54809 24.1261L8.58048 24.1242C8.81631 24.1148 9.05248 24.1189 9.28785 24.1364L9.32696 24.139C9.58677 24.1603 9.8675 24.2015 10.1624 24.2641C10.2328 24.2792 10.3031 24.2938 10.3758 24.3115C10.3907 24.2838 10.406 24.2554 10.4213 24.2277C10.5774 23.9472 10.7353 23.6738 10.8951 23.4052C11.8284 21.8387 12.8296 20.4692 13.8515 19.2752C14.1914 18.8776 14.5422 18.4895 14.9035 18.1114C16.3692 16.5789 17.8436 15.3856 19.1917 14.4642C19.4806 14.2669 19.7734 14.0753 20.07 13.8896C20.4374 13.6598 20.8108 13.4396 21.1898 13.2292C21.4643 13.0769 21.7418 12.9301 22.0221 12.789C22.4142 12.5913 22.8122 12.4057 23.2156 12.2324C23.4596 12.1279 23.7058 12.0286 23.9539 11.9344C23.843 11.9228 23.7302 11.9138 23.6148 11.9078C23.5075 11.9022 23.3983 11.9 23.2879 11.8998L23.2047 11.9C22.8698 11.9031 22.5355 11.9307 22.2046 11.9825C22.1293 11.9943 22.0536 12.0076 21.9768 12.0228C22.505 11.7493 23.0568 11.5241 23.6254 11.3498C23.9803 11.2405 24.3273 11.1549 24.6602 11.0897C25.3354 10.9594 26.0219 10.8964 26.7095 10.9017C26.945 10.9041 27.1617 10.9143 27.3565 10.9289C28.0371 10.9799 28.4474 11.0842 28.4474 11.0842C28.3508 10.948 28.2291 10.8293 28.0968 10.7256C27.8557 10.5388 27.5783 10.4049 27.3349 10.31C27.1911 10.2538 27.0445 10.2053 26.8957 10.1647C27.0103 10.145 27.1236 10.1282 27.2353 10.1133C27.3521 10.0974 27.4692 10.0838 27.5865 10.0725C28.4155 9.99551 29.2512 10.0334 30.0699 10.1851C30.8471 10.3289 31.3151 10.5246 31.3151 10.5246C31.2043 10.3084 31.04 10.1239 30.8602 9.96796C30.7343 9.85987 30.6001 9.76194 30.4587 9.67509C31.2559 9.85962 32.0304 10.1316 32.768 10.4861C32.9227 10.5608 33.0754 10.6394 33.226 10.722C33.6066 10.9298 33.8169 11.0791 33.8169 11.0791C33.7532 10.8551 33.624 10.6433 33.4734 10.4533C33.4356 10.4056 33.397 10.3586 33.3577 10.314L33.3759 10.3224C33.3899 10.3269 33.4197 10.3362 33.4614 10.3504C33.4916 10.3606 33.5282 10.3732 33.572 10.389C33.7376 10.4493 33.9908 10.5506 34.2885 10.6987L34.3318 10.7203C34.3722 10.7411 34.4135 10.7622 34.4548 10.7841C34.557 10.838 34.6625 10.8979 34.7702 10.962C34.9296 11.0569 35.0849 11.1585 35.2356 11.2666C35.3492 11.348 35.462 11.4356 35.574 11.5292C35.6905 11.6267 35.8027 11.7291 35.9104 11.8363C35.9317 11.8579 35.9537 11.8791 35.9752 11.9015C36.0549 11.9834 36.1317 12.0697 36.2059 12.1594C36.3499 12.331 36.4797 12.5141 36.594 12.7068C36.7376 12.9484 36.8537 13.2054 36.94 13.4729C36.9447 13.4885 36.9491 13.5048 36.9533 13.5202C37.0175 13.4512 37.1307 13.3272 37.2781 13.1578C38.5016 11.7499 42.1048 7.17717 39.934 4.38693" fill="#141C26"/>
<path d="M45.3182 38.5496L45.3189 38.5493C45.3189 38.5493 45.3611 38.2327 45.1939 37.9495L45.1903 37.9417C45.1807 37.9254 45.1704 37.9096 45.1594 37.8943L45.1485 37.8779C45.1289 37.8525 45.1077 37.8284 45.0851 37.8056C45.0418 37.7599 44.9929 37.7198 44.9396 37.6861C44.9087 37.666 44.8765 37.6478 44.8433 37.6317C44.7486 37.5863 44.6348 37.5519 44.4998 37.5321C44.3891 37.5176 44.2772 37.5128 44.1656 37.5175C44.116 37.519 44.067 37.52 44.0133 37.5251L43.9892 37.5266L43.9981 37.5592L44.0219 37.6488L44.0341 37.698C44.0516 37.7679 44.0727 37.857 44.0941 37.9575C44.0877 37.977 44.0803 37.996 44.0719 38.0147L44.0637 38.0342C44.0022 38.1774 43.8351 38.5077 43.4626 38.9376C43.3991 39.0104 43.3289 39.0869 43.2536 39.1656C42.2147 40.2402 39.966 41.7704 35.2356 42.6264C33.6304 42.8532 32.1504 42.8656 30.8863 42.7082C29.017 42.4755 27.6165 41.8777 26.965 41.0738C26.9086 41.0048 26.8567 40.9335 26.8074 40.862C26.7712 40.8094 26.7366 40.7557 26.7037 40.701C26.6921 40.6809 26.6813 40.6607 26.6701 40.6409C26.4025 40.1655 26.2662 39.6274 26.2749 39.0818C26.284 38.4465 26.4818 37.8388 26.8169 37.3716C27.0887 36.9928 27.45 36.7065 27.8728 36.5742C28.0867 36.5073 28.3111 36.4809 28.5346 36.4963C28.5815 36.4996 28.6437 36.5061 28.7212 36.5158C28.8766 36.5353 29.0936 36.5659 29.3598 36.6001L29.4486 36.6114C30.3365 36.7218 31.7501 36.8555 33.4596 36.7509C36.57 36.5613 40.6637 35.5816 44.381 32.2259L44.3912 32.2128V32.2069C44.4036 31.9259 44.3661 31.4183 44.0113 31.0234C43.946 30.9512 43.8735 30.8859 43.7948 30.8286C43.7467 30.7928 43.6966 30.76 43.6446 30.7302C43.59 30.7 43.5399 30.6694 43.4917 30.6386C43.4292 30.5998 43.3682 30.5586 43.3089 30.5151L43.3007 30.5033C43.2756 30.4639 43.2489 30.4257 43.2232 30.3864C42.2589 28.9244 40.9306 28.0758 40.4008 27.687C40.151 27.503 39.992 27.4193 39.992 27.4193C38.8449 26.7199 38.6766 26.4879 38.7839 24.5882C38.8222 23.9041 38.8962 23.005 38.9724 21.7862C38.9818 21.6339 38.9877 21.4815 38.9901 21.329C38.9908 21.2935 38.9915 21.2591 38.9915 21.2243C38.9929 21.0883 38.9909 20.9524 38.9857 20.8165L38.9844 20.7788L38.9813 20.7385C38.9731 20.5953 38.9618 20.4523 38.9473 20.3096C38.9365 20.2082 38.9229 20.1071 38.9066 20.0064C38.8986 19.9565 38.8887 19.9084 38.8796 19.8598C38.8696 19.8061 38.8586 19.7526 38.8469 19.6993C38.8361 19.648 38.8244 19.597 38.8118 19.5461L38.8112 19.5458L38.8118 19.5452V19.5458C38.7963 19.4846 38.7785 19.4265 38.7616 19.3685C38.7554 19.3472 38.7505 19.3252 38.7436 19.3048C38.7372 19.2851 38.7303 19.2673 38.7241 19.2476L38.7175 19.2283L38.6981 19.1726L38.6975 19.1689C38.6815 19.1239 38.6648 19.0802 38.6486 19.0378L38.6435 19.0236L38.6269 18.9832L38.6069 18.9334L38.6024 18.924V18.9227C38.5678 18.8422 38.532 18.7641 38.4938 18.6908L38.4634 18.6367C38.4211 18.5672 38.3766 18.4991 38.3298 18.4326L38.3116 18.4053L38.2889 18.3752C38.2561 18.3304 38.2234 18.2867 38.1907 18.2457L38.1457 18.1893C38.103 18.1382 38.0589 18.0882 38.0136 18.0394V18.039L38.0127 18.0315L38.0114 18.0224L38.0089 18.0097L38.0056 17.9915L38.0029 17.9734L37.9971 17.9443L37.9943 17.9264L37.9863 17.8855L37.9831 17.8709C37.9629 17.7708 37.9406 17.6711 37.9161 17.572L37.9143 17.5633C37.9066 17.5343 37.899 17.5039 37.891 17.4726L37.8875 17.4607C37.8788 17.4271 37.8697 17.3936 37.8603 17.3602L37.8592 17.358C37.8349 17.2718 37.8091 17.1861 37.7817 17.1008C37.7727 17.0717 37.762 17.0411 37.7513 17.0109C37.7302 16.9466 37.7081 16.8827 37.6849 16.8193C37.671 16.7816 37.6559 16.7442 37.6412 16.7056C37.6175 16.6436 37.5925 16.5821 37.5662 16.5211C37.5493 16.48 37.5302 16.4393 37.5122 16.3978C37.4646 16.2928 37.4143 16.1891 37.3612 16.0867C37.3276 16.0236 37.2927 15.9612 37.2564 15.8995C37.2328 15.8598 37.2097 15.8197 37.1858 15.7798C37.144 15.713 37.0988 15.6476 37.0534 15.5822C37.0304 15.55 37.009 15.5163 36.985 15.4839C36.9639 15.4558 36.94 15.4298 36.918 15.4025C36.8656 15.3355 36.8139 15.2684 36.7566 15.2054L36.7497 15.1985L36.7171 15.1675C36.6435 15.0881 36.566 15.0109 36.4826 14.9399L36.4677 14.9271C36.4308 14.8959 36.3931 14.8658 36.3545 14.8368L36.3505 14.8335L36.3367 14.8235C36.3036 14.7985 36.2694 14.7747 36.2348 14.7514L36.2166 14.7386L36.2239 14.7446C36.1875 14.7177 36.1213 14.6827 36.0343 14.6439C36.0015 14.6295 35.9684 14.6155 35.9352 14.602C35.7562 14.5301 35.5142 14.4487 35.2275 14.3723C35.2096 14.3672 35.1907 14.3629 35.1732 14.3585C34.8209 14.2669 34.463 14.1986 34.1018 14.1538C34.056 14.148 34.0088 14.1456 33.9626 14.1407C33.9441 14.1389 33.925 14.1374 33.9062 14.1354C33.6837 14.1124 33.4601 14.1012 33.2363 14.1017L33.2231 14.1022C32.933 14.105 32.6427 14.129 32.3658 14.1838C32.4309 14.0758 32.6068 13.9564 32.7833 13.8566C32.9263 13.7767 33.0732 13.7042 33.2236 13.6395C33.0979 13.6489 32.9689 13.6668 32.8404 13.6875C32.7991 13.6945 32.7573 13.7001 32.7156 13.7077C32.6883 13.7127 32.6616 13.7181 32.6349 13.723L32.6112 13.728C32.5885 13.7325 32.5666 13.7373 32.5443 13.742C31.8976 13.8799 31.2754 14.113 30.9294 14.2543C30.8803 14.2744 30.8373 14.2926 30.7995 14.3084L30.7776 14.3175C30.7431 14.3217 30.708 14.327 30.6734 14.3312L30.6743 14.3301C30.9294 13.8578 31.3058 13.6034 31.5925 13.469C31.6426 13.4455 31.6904 13.4244 31.7337 13.408C31.7501 13.4016 31.7636 13.3976 31.7779 13.3921C31.8194 13.3775 31.8547 13.3661 31.8853 13.3571C31.953 13.3375 31.997 13.3287 31.997 13.3287C31.9661 13.3295 31.9375 13.3335 31.9075 13.3351C31.882 13.3369 31.8567 13.3391 31.8316 13.3411C31.7943 13.3439 31.7565 13.3459 31.7197 13.3493C31.6977 13.3515 31.6746 13.352 31.6524 13.3542C30.9376 13.4318 30.3019 13.6744 29.757 13.9758C29.407 14.1698 29.0755 14.3955 28.7667 14.6501C28.6916 14.6658 28.6148 14.6818 28.5369 14.6984C27.7553 14.8654 26.8624 15.0805 25.9236 15.369C25.5689 15.4777 25.2167 15.5947 24.8674 15.7197C24.3816 15.8954 23.9021 16.0884 23.43 16.2984C21.9885 16.9426 20.5681 17.7977 19.3746 18.9451C19.3317 18.9864 19.2865 19.0252 19.2443 19.0673C19.1408 19.1718 19.0395 19.2784 18.9405 19.3871C18.8996 19.4312 18.8566 19.4727 18.8164 19.5175C18.766 19.5733 18.7194 19.6334 18.6703 19.6906C18.4449 19.9508 18.2332 20.2225 18.0359 20.5047C17.8872 20.7188 17.7473 20.939 17.6167 21.1647L17.6005 21.1917C17.32 21.6797 17.0824 22.1912 16.8906 22.7205C16.7626 23.0737 16.654 23.4337 16.5653 23.7989L16.5548 23.8397C16.4784 24.1641 16.4168 24.4917 16.3701 24.8217C16.3608 24.8882 16.3503 24.9539 16.3413 25.0215C16.3202 25.1902 16.3037 25.3621 16.2895 25.5364C16.2764 25.6977 16.2663 25.8592 16.2593 26.0209L16.2577 26.0588C16.2546 26.1389 16.25 26.2183 16.2484 26.2997C16.2466 26.3924 16.2473 26.4869 16.2473 26.5815C16.2469 26.6033 16.2469 26.6252 16.2467 26.6476C16.247 26.8344 16.2509 27.0213 16.2586 27.208L16.2606 27.2382C16.2688 27.4269 16.282 27.6194 16.2984 27.8138C16.3053 27.8943 16.3121 27.9751 16.3202 28.0569C16.3222 28.0766 16.3235 28.0966 16.3253 28.1168C16.3301 28.1622 16.3355 28.2079 16.3406 28.2532C16.3645 28.468 16.3934 28.6865 16.427 28.9082C16.436 28.9697 16.4443 29.0311 16.4543 29.093C16.4853 29.287 16.5189 29.4824 16.5573 29.6813C16.5573 29.6813 16.5226 29.4263 16.5442 29.0512C16.5497 28.9646 16.5577 28.8725 16.5693 28.7741C16.5961 28.561 16.6415 28.3261 16.719 28.0835C16.7382 28.0243 16.7596 27.9646 16.7827 27.9045C16.7922 27.8782 16.8038 27.8526 16.8144 27.8261C16.8602 27.7152 16.9117 27.6039 16.9739 27.4938C16.9879 27.5721 17.0031 27.6502 17.0187 27.7293L17.0238 27.7548L17.0232 27.7905L17.0216 27.9471C17.0193 28.2395 17.0227 28.5319 17.0318 28.8242C17.0533 29.5302 17.114 30.3822 17.2665 31.1081C17.2665 31.1081 17.2951 29.7881 17.5183 29.6387C17.5183 29.6387 17.9085 32.0833 18.2708 33.0061C18.3177 33.1256 18.3645 33.221 18.4096 33.2806L18.4003 33.0382L18.3487 31.6795C18.3487 31.6795 18.351 31.6287 18.3559 31.5398C18.6422 32.1244 18.9523 32.6971 19.2853 33.2564C19.3822 33.419 19.481 33.5824 19.5836 33.7476C18.9127 34.3382 18.2923 35.174 17.8469 36.1736C17.775 36.335 17.7085 36.4988 17.6473 36.6646C17.5386 36.963 17.4473 37.2675 17.3737 37.5765C17.3656 37.6097 17.3573 37.6428 17.3502 37.6763C17.3273 37.7781 17.3056 37.8803 17.2865 37.9841L17.2851 37.9938C17.2663 38.0976 17.2498 38.2027 17.235 38.3083C17.2303 38.3424 17.2259 38.3768 17.2221 38.4107C17.2123 38.4861 17.2039 38.5618 17.1966 38.6378C17.1924 38.6764 17.1894 38.7148 17.1859 38.7538C17.1796 38.8308 17.1745 38.9079 17.1706 38.9851C17.1622 39.1324 17.1582 39.2798 17.1584 39.4273L17.1588 39.4419C17.1588 39.5289 17.1613 39.6158 17.1646 39.7034C17.1682 39.7918 17.1735 39.8801 17.1799 39.9692L17.1823 40.0049L17.1835 40.0271C17.1919 40.1351 17.2035 40.2431 17.2166 40.3522C17.2208 40.3868 17.2268 40.4212 17.2314 40.456C17.2416 40.5303 17.2516 40.605 17.2645 40.6802C17.271 40.7215 17.2792 40.764 17.2863 40.8053C17.2994 40.8742 17.312 40.9426 17.3267 41.0117C17.3362 41.0559 17.3464 41.1002 17.3558 41.1446C17.3974 41.3265 17.4451 41.5069 17.4988 41.6856C17.5121 41.73 17.5256 41.775 17.5398 41.8196C17.5623 41.8899 17.5865 41.9608 17.6107 42.0309C17.6256 42.0731 17.6396 42.1154 17.6551 42.1576C17.6837 42.2356 17.7142 42.3135 17.7457 42.3917C17.7597 42.4266 17.7725 42.4614 17.7872 42.4966C17.8835 42.728 17.9893 42.9552 18.1045 43.1778C18.1223 43.2111 18.1414 43.2451 18.1589 43.279C18.2015 43.3586 18.2449 43.4384 18.2901 43.5182C18.3141 43.5597 18.339 43.6012 18.3641 43.6433C18.4067 43.715 18.4496 43.7873 18.4951 43.8593C18.5228 43.9037 18.5519 43.9485 18.5806 43.9931C18.6565 44.1095 18.7345 44.2245 18.8146 44.3379C18.863 44.4068 18.9132 44.4756 18.9651 44.5441C18.9985 44.5893 19.0318 44.6344 19.0664 44.6796C19.121 44.7501 19.1766 44.8204 19.2341 44.8905C19.2683 44.9335 19.3025 44.9765 19.3378 45.0191C19.4019 45.0956 19.4685 45.1724 19.5358 45.2486C19.5674 45.2846 19.5973 45.3207 19.6295 45.3566C19.7305 45.4688 19.8338 45.5806 19.9419 45.6922L19.9415 45.6915C19.888 45.6113 19.8387 45.5284 19.7938 45.4431L19.7907 45.438C19.775 45.4087 19.7585 45.3761 19.7416 45.3418L19.7361 45.3324C19.7174 45.2944 19.6992 45.2561 19.6815 45.2176L19.6777 45.2107C19.657 45.1655 19.6371 45.12 19.618 45.0741C19.459 44.6913 19.3044 44.1598 19.3244 43.5671C19.3859 43.6497 19.4486 43.7292 19.5109 43.8103C19.6349 44.0623 19.7633 44.3121 19.896 44.5596C20.0676 44.8777 20.2478 45.1911 20.4366 45.4994C20.6765 45.8882 20.9402 46.2776 21.2125 46.6135L21.212 46.6131C21.2107 46.6109 20.895 45.9511 20.7893 45.5181C20.7597 45.3965 20.7457 45.2919 20.7609 45.2262L20.8374 45.3049C20.8627 45.3313 20.8883 45.3569 20.9138 45.3833C20.9642 45.4504 21.0279 45.5349 21.099 45.6285L21.135 45.6759C21.1703 45.7223 21.2067 45.7706 21.246 45.8217L21.2482 45.8247L21.3901 46.0086C21.8344 46.5803 22.4253 47.3108 22.8469 47.7123C22.9875 47.8461 23.109 47.9436 23.2002 47.9856L22.592 46.8949C23.9685 48.0162 29.6485 49.456 35.2444 47.8489C35.9311 47.6528 36.6041 47.4115 37.2591 47.1267C37.6648 46.9515 38.0627 46.7591 38.4519 46.5499L38.509 46.518C38.7871 46.3654 39.0604 46.2042 39.3287 46.0348L39.3347 46.0312C39.8901 45.681 40.4222 45.2948 40.9273 44.8752L40.9283 44.8748L40.9295 44.8738C40.9481 44.8574 40.9672 44.8413 40.9867 44.8249C41.2987 44.5523 41.598 44.2653 41.8836 43.9649C42.2376 43.5915 42.57 43.1981 42.8792 42.7867L42.901 42.7583C42.9739 42.6605 43.0454 42.5634 43.1148 42.4669L43.1344 42.4387C43.157 42.4057 43.177 42.3742 43.1994 42.3416C43.2953 42.2044 43.389 42.0658 43.4805 41.9256L43.5452 41.8254C43.5916 41.7524 43.6362 41.6792 43.6808 41.6069C43.7144 41.5502 43.749 41.4936 43.7816 41.4375C43.8179 41.3763 43.8543 41.3151 43.8898 41.2543C43.9517 41.1453 44.0124 41.0356 44.0719 40.9253C44.095 40.8822 44.1169 40.8401 44.1392 40.7975C44.184 40.7126 44.2277 40.6288 44.2692 40.546C44.2884 40.5072 44.3079 40.4686 44.3266 40.4301L44.3436 40.3937C44.3946 40.2907 44.4444 40.1872 44.4929 40.083L44.502 40.0611C44.6609 39.9147 44.8056 39.7537 44.9343 39.5801C44.9507 39.5583 44.9676 39.5364 44.9825 39.5147C45.232 39.1545 45.3136 38.8356 45.3182 38.5495M11.8903 34.5C11.8852 34.4745 11.8808 34.4491 11.8764 34.424L11.8808 34.4222C11.8148 34.0548 11.7645 33.6848 11.7302 33.3132C11.728 33.2862 11.7242 33.2602 11.7213 33.2334C11.659 33.2529 11.5888 33.3354 11.5182 33.4482C11.4906 33.4929 11.4645 33.5386 11.44 33.5851C11.2508 33.9408 11.0805 34.4338 11.0805 34.4338C11.0947 34.2645 11.1118 34.0954 11.132 33.9266C11.1343 33.9066 11.1372 33.8871 11.1398 33.8669C11.1607 33.692 11.1851 33.5157 11.2109 33.3405C11.2138 33.3192 11.2173 33.2983 11.2204 33.2775C11.2506 33.0799 11.2826 32.8835 11.3159 32.6941L11.3286 32.6213L11.3312 32.6087L11.3428 32.5428C11.3745 32.3657 11.4078 32.1889 11.4429 32.0124C11.4674 31.888 11.4915 31.7702 11.5144 31.6594L11.5217 31.6238C11.5251 31.6063 11.5289 31.5904 11.5322 31.5738C11.5359 31.5576 11.5391 31.5409 11.5424 31.5239L11.5437 31.5181C11.5497 31.4904 11.5561 31.462 11.5615 31.4358L11.5633 31.4285C11.5684 31.4025 11.5735 31.3804 11.5786 31.3562C11.5872 31.318 11.5952 31.279 11.6032 31.2433L11.6054 31.2334C11.6119 31.2045 11.6179 31.1752 11.6239 31.1488C11.6326 31.1109 11.6407 31.0759 11.6476 31.0428L11.6479 31.0418L11.6485 31.0409C11.6525 31.022 11.6565 31.0056 11.6605 30.9881L11.6612 30.985C11.665 30.9692 11.6685 30.9526 11.6719 30.9386L11.693 30.8477L11.6983 30.8262L11.7003 30.8182L11.7063 30.7927L11.7105 30.775L11.7114 30.7725L11.7085 30.7748L11.6703 30.8094C11.6366 30.8395 11.6021 30.8688 11.5706 30.902L11.5359 30.9402C11.498 30.9823 11.4623 31.0262 11.4289 31.0719L11.411 31.0943C11.3692 31.1526 11.3305 31.2138 11.2935 31.2759V31.2761L11.2886 31.2843V31.2846L11.2735 31.3123C11.265 31.3274 11.2569 31.3431 11.2488 31.3584C11.2275 31.3974 11.2053 31.4352 11.1862 31.4744L11.1853 31.4759L11.1845 31.4771L11.1836 31.4804L11.1762 31.4952L11.1693 31.5101C11.1401 31.5709 11.1125 31.6325 11.0865 31.6948C11.0038 31.8921 10.934 32.0945 10.8772 32.3007C10.8529 32.3887 10.8358 32.4575 10.8281 32.4912L10.8278 32.4942L10.8223 32.5167V32.5164V32.5167L10.8245 32.4903C10.8274 32.4381 10.8334 32.386 10.8376 32.3341C10.8456 32.2248 10.8525 32.115 10.8645 32.0062C10.8742 31.9148 10.8882 31.8254 10.9011 31.7347L10.9138 31.6498C10.9193 31.6079 10.9251 31.566 10.932 31.5245C10.938 31.4857 10.9466 31.4474 10.9538 31.4094L10.9542 31.4065V31.4063L10.9624 31.3637L10.9648 31.352C10.9766 31.287 10.9888 31.222 11.0013 31.1571L11.0079 31.1249L11.0092 31.1189L11.0188 31.0732C11.0224 31.054 11.0279 31.0355 11.0317 31.0174C11.0472 30.949 11.0637 30.8819 11.0797 30.8144L11.0825 30.8031C11.0943 30.7528 11.1052 30.7022 11.1181 30.6526L11.1185 30.6504L11.1198 30.6472L11.1238 30.6326C11.1502 30.5306 11.1794 30.431 11.2087 30.3306L11.224 30.2753C11.2297 30.2569 11.2344 30.2372 11.2404 30.2186C11.2886 30.0558 11.3405 29.895 11.3954 29.7378L11.4025 29.7181C11.4498 29.5846 11.4975 29.4531 11.5475 29.3236L11.553 29.3089C11.5757 29.2519 11.599 29.1972 11.6212 29.1408L11.6248 29.1326C11.659 29.0486 11.6927 28.9641 11.7276 28.8829V28.8816L11.7283 28.8805L11.7323 28.8703C11.7416 28.8499 11.7633 28.8005 11.7969 28.7277L11.7975 28.7264L11.802 28.7166C11.8151 28.6878 11.8275 28.6599 11.8402 28.6308L11.9021 28.4931L11.9205 28.4532L11.921 28.4514L12.2754 27.8136C12.2902 27.7866 12.3047 27.76 12.3189 27.7331L12.3264 27.7203L12.3446 27.6875C12.3831 27.6167 12.4219 27.5455 12.4597 27.4766L12.6222 27.1836C12.7263 26.996 12.8154 26.837 12.8696 26.741C12.8882 26.7081 12.9067 26.6751 12.9249 26.6419L12.9275 26.6372H12.9271L12.9259 26.6361L12.9226 26.6336C12.9087 26.6243 12.8012 26.55 12.624 26.4425C12.2351 26.2087 11.8292 26.0044 11.4098 25.8315C11.2534 25.7669 11.095 25.7075 10.9347 25.6533C10.8922 25.6393 10.8474 25.6278 10.8045 25.6144C10.6662 25.5706 10.5243 25.5315 10.3791 25.4969L10.3707 25.4951C10.271 25.471 10.1721 25.4461 10.0698 25.4271C9.98944 25.4113 9.9087 25.3976 9.82765 25.3858C9.78872 25.3803 9.74851 25.3772 9.7094 25.3738L9.59277 25.3619C9.4828 25.3526 9.37255 25.3467 9.2622 25.3444C9.20871 25.3432 9.15504 25.3415 9.10155 25.3426C8.86139 25.3481 8.6256 25.3694 8.39399 25.4024L8.35178 25.4089C7.94061 25.4701 7.53711 25.575 7.14809 25.7216C7.01801 25.7708 6.88956 25.8236 6.76348 25.8815C6.7277 25.8983 6.6921 25.9155 6.65668 25.9331C6.61356 25.954 6.56972 25.9746 6.52714 25.9965C6.14874 26.1921 5.79257 26.428 5.46482 26.7002L5.45317 26.7099C5.0912 27.0102 4.76644 27.3529 4.48582 27.7305C4.41167 27.8295 4.34056 27.9307 4.27259 28.034C4.14437 28.2303 4.02785 28.4341 3.92363 28.6443C3.88688 28.7184 3.85086 28.7929 3.8172 28.8687C3.81083 28.8829 3.80519 28.8978 3.79919 28.9122C3.58017 29.4134 3.43181 29.9427 3.35835 30.4849C3.34342 30.5936 3.33147 30.7028 3.32251 30.8122L3.31942 30.8533C3.30513 31.0489 3.30027 31.245 3.30487 31.4411C3.30505 31.4587 3.30668 31.4753 3.30723 31.4926C3.30996 31.5771 3.31323 31.6613 3.31942 31.7451L3.32415 31.7891L3.32943 31.847C3.33488 31.9133 3.34125 31.9791 3.34889 32.0437L3.35162 32.0587V32.0629L3.35199 32.0636C3.35654 32.0962 3.36218 32.1292 3.36672 32.1619C3.37527 32.2208 3.38346 32.28 3.3931 32.3382C3.40093 32.3807 3.41021 32.4222 3.41839 32.4643C3.42931 32.5186 3.43895 32.5736 3.45151 32.6275C3.46151 32.6719 3.47334 32.7154 3.48425 32.7586L3.49153 32.7892L3.50354 32.8347L3.51245 32.8693L3.52337 32.9114C3.53592 32.9566 3.55066 33.0018 3.56394 33.0466C3.5785 33.0939 3.59251 33.1424 3.60815 33.1888C3.62307 33.2351 3.64017 33.2804 3.65673 33.3261L3.67019 33.3626C3.68147 33.3953 3.69294 33.4285 3.70604 33.4609C3.72387 33.5072 3.74351 33.5532 3.76262 33.5995C3.78027 33.6414 3.79755 33.684 3.81593 33.7257C3.82648 33.7496 3.83776 33.7731 3.84867 33.7958C3.86014 33.819 3.87032 33.8425 3.88106 33.8654C3.92206 33.9533 3.96593 34.0399 4.0126 34.125C4.03261 34.1617 4.05153 34.1985 4.07173 34.235C4.09865 34.2829 4.1274 34.33 4.15596 34.3776C4.17598 34.4107 4.19563 34.4444 4.21637 34.4781C4.24675 34.5264 4.27823 34.573 4.31025 34.6202C4.33081 34.6517 4.35136 34.6826 4.37229 34.713C4.40595 34.7609 4.44088 34.8085 4.47599 34.856C4.5325 34.9336 4.59148 35.0093 4.65283 35.0831C4.67285 35.1083 4.69286 35.1336 4.71451 35.1582C4.7549 35.2064 4.79693 35.2536 4.8395 35.3008C4.85915 35.323 4.87916 35.345 4.8999 35.3674C4.94393 35.4155 4.98942 35.4629 5.03581 35.5086C5.05582 35.5281 5.07456 35.5481 5.09458 35.5676C5.16117 35.6323 5.22892 35.6958 5.2978 35.7581C5.34983 35.8042 5.40278 35.8497 5.45681 35.8945C5.47464 35.9091 5.49174 35.9242 5.50957 35.9386C5.56561 35.9845 5.62274 36.0284 5.68023 36.0723C5.6966 36.0841 5.71371 36.0972 5.72972 36.1094C5.78994 36.1533 5.85034 36.1961 5.91183 36.2382L5.9575 36.2694C6.02118 36.312 6.08577 36.3539 6.1509 36.3938L6.19256 36.4189C6.25988 36.4602 6.32901 36.4987 6.39833 36.5373L6.43399 36.5573C6.50586 36.5963 6.57863 36.6331 6.65159 36.6691L6.68288 36.6841C6.7582 36.7205 6.83407 36.7551 6.91121 36.7886L6.9385 36.8004C7.01728 36.8334 7.09679 36.8649 7.17684 36.8955L7.19922 36.9035C7.282 36.9338 7.36442 36.9625 7.44865 36.9897L7.46575 36.9951C7.50669 37.0079 7.54872 37.0188 7.59002 37.031C7.63495 37.0441 7.67989 37.0583 7.72538 37.0705L7.73811 37.0742C7.82726 37.0973 7.91696 37.1186 8.00738 37.1379L8.0152 37.1401C8.01557 37.1403 8.01648 37.1403 8.01666 37.1407C8.10799 37.16 8.20041 37.1775 8.29357 37.192L8.29775 37.1935C8.58745 37.2401 8.88019 37.2652 9.17359 37.2687C9.24437 37.27 9.31514 37.2707 9.38628 37.27C9.62002 37.2623 9.85312 37.2409 10.0844 37.2059C10.3919 37.1591 10.696 37.0922 10.9948 37.0055C11.5288 36.8504 12.0005 36.6431 12.2825 36.4325C12.2825 36.4325 12.0969 35.61 11.9401 34.7744C11.9231 34.683 11.9065 34.5915 11.8903 34.5" fill="#856249"/>
<path d="M36.2154 14.7377L36.2161 14.7379L36.2143 14.7367L36.2154 14.7377Z" fill="#856249"/>
<path d="M25.2218 3.60213L25.154 2.76907L25.5706 1.84567L25.7353 1.80869C25.4624 1.68193 25.1382 1.59141 24.7628 1.5446C24.0111 1.4499 23.0566 1.53695 21.9694 1.81835C20.8819 2.09773 19.6628 2.56763 18.3698 3.21237C15.7835 4.5004 12.9044 6.48617 10.1339 9.01633C9.19549 9.87196 8.2956 10.7689 7.43683 11.7046C6.66328 12.5455 5.9287 13.4216 5.23539 14.33C3.89398 16.0925 2.86585 17.8067 2.20924 19.3357C1.77078 20.3545 1.49951 21.2907 1.40035 22.0918C1.32721 22.6743 1.34632 23.1837 1.44384 23.6046C1.47531 23.7407 1.51716 23.8645 1.56428 23.9827C1.66234 24.2315 1.79115 24.4459 1.95744 24.6293L3.63362 26.3874L3.81338 26.5755L3.8252 26.5628C3.87615 26.5036 3.92873 26.4444 3.98167 26.3867L3.99604 26.3714C4.01533 26.3504 4.03534 26.3309 4.05481 26.3111C4.10502 26.2581 4.15603 26.2059 4.20782 26.1545C4.24002 26.1226 4.27259 26.092 4.30552 26.061C4.33735 26.031 4.36847 25.9996 4.40085 25.97C4.41541 25.9567 4.43051 25.9445 4.44542 25.9312C4.47945 25.9002 4.51474 25.8698 4.55004 25.8392C4.62791 25.7714 4.70732 25.7055 4.78819 25.6414L4.80129 25.6312C4.888 25.5634 4.97595 25.4972 5.0651 25.4327C5.12096 25.393 5.1779 25.3534 5.23539 25.3148C5.26996 25.2917 5.30398 25.2686 5.33873 25.246C5.3975 25.2077 5.45754 25.1706 5.51758 25.134C5.55269 25.1127 5.58671 25.0915 5.62146 25.0713C5.68441 25.0343 5.74827 24.9994 5.81177 24.9644C5.84579 24.9462 5.87927 24.9271 5.91329 24.909L5.9515 24.889L5.95386 24.8821C6.35521 23.7698 6.95633 22.5625 7.73557 21.3045C8.69292 19.7593 9.91607 18.1387 11.3685 16.5247C12.3183 15.4707 13.3191 14.4639 14.3673 13.5078C15.7682 12.2297 17.1961 11.0892 18.6046 10.1011C19.5105 9.46385 20.4462 8.87027 21.4086 8.32241C21.4956 8.27323 21.5828 8.22206 21.6692 8.17434C21.9094 8.04142 22.1517 7.91215 22.3958 7.78658C22.9003 7.52437 23.4137 7.27963 23.935 7.05278L23.6892 6.75736L23.6485 6.70873L21.613 4.25817L21.6286 2.76524L21.6095 2.74357L22.8328 2.3784L25.2218 3.60231" fill="#3478AD"/>
<path d="M45.3182 38.5496L45.3189 38.5492C45.3189 38.5492 45.3612 38.2327 45.194 37.9494L45.1903 37.9416C45.1807 37.9254 45.1704 37.9096 45.1594 37.8943L45.1485 37.8779C45.1289 37.8525 45.1077 37.8283 45.0852 37.8056C45.0418 37.7598 44.9929 37.7197 44.9396 37.6861C44.9087 37.6659 44.8766 37.6477 44.8434 37.6316C44.7486 37.5863 44.6349 37.5519 44.4999 37.532C44.3891 37.5176 44.2773 37.5127 44.1657 37.5174C44.116 37.5189 44.067 37.52 44.0134 37.5251L43.9892 37.5265L43.9981 37.5591L44.0219 37.6488L44.0341 37.6979C44.0516 37.7679 44.0727 37.8569 44.0942 37.9575C44.0877 37.9769 44.0803 37.996 44.072 38.0147L44.0638 38.0341C44.0023 38.1773 43.8351 38.5077 43.4627 38.9375C43.3992 39.0104 43.3289 39.0869 43.2536 39.1655C42.2147 40.2401 39.966 41.7704 35.2357 42.6264C33.6304 42.8531 32.1504 42.8655 30.8863 42.7082C29.0171 42.4754 27.6165 41.8776 26.965 41.0737C26.9086 41.0047 26.8568 40.9335 26.8075 40.8619C26.7712 40.8093 26.7366 40.7556 26.7037 40.7009C26.6921 40.6809 26.6814 40.6606 26.6701 40.6408C26.4026 40.1654 26.2662 39.6273 26.2749 39.0818C26.284 38.4465 26.4818 37.8387 26.8169 37.3715C27.0887 36.9927 27.4501 36.7064 27.8729 36.5742C28.0867 36.5072 28.3111 36.4808 28.5346 36.4962C28.5815 36.4995 28.6437 36.5061 28.7212 36.5157C28.8766 36.5352 29.0937 36.5658 29.3598 36.6L29.4486 36.6113C30.3365 36.7217 31.7501 36.8554 33.4596 36.7508C36.57 36.5612 40.6637 35.5816 44.3811 32.2258L44.3913 32.2127V32.2069C44.4036 31.9258 44.3661 31.4182 44.0114 31.0234C43.9461 30.9512 43.8735 30.8859 43.7949 30.8285C43.7468 30.7928 43.6966 30.7599 43.6446 30.7302C43.59 30.6999 43.54 30.6693 43.4918 30.6385C43.4292 30.5998 43.3682 30.5586 43.3089 30.5151L43.3007 30.5032C43.2756 30.4639 43.2489 30.4256 43.2232 30.3863C42.259 28.9243 40.9306 28.0758 40.4008 27.6869C40.151 27.503 39.992 27.4192 39.992 27.4192C38.8449 26.7198 38.6766 26.4878 38.784 24.5882C38.8222 23.9041 38.8962 23.0049 38.9725 21.7861C38.9819 21.6339 38.9878 21.4814 38.9901 21.3289C38.9908 21.2934 38.9916 21.259 38.9916 21.2242C38.9929 21.0883 38.991 20.9523 38.9857 20.8164L38.9845 20.7787L38.9814 20.7385C38.9732 20.5953 38.9618 20.4523 38.9473 20.3096C38.9365 20.2081 38.923 20.107 38.9066 20.0063C38.8986 19.9564 38.8888 19.9083 38.8797 19.8597C38.8696 19.806 38.8587 19.7525 38.8469 19.6992C38.8361 19.648 38.8244 19.5969 38.8118 19.5461L38.8113 19.5457L38.8118 19.5452V19.5457C38.7963 19.4845 38.7785 19.4264 38.7616 19.3685C38.7554 19.3472 38.7505 19.3251 38.7436 19.3047C38.7372 19.2851 38.7303 19.2672 38.7241 19.2475L38.7176 19.2282L38.6981 19.1725L38.6976 19.1689C38.6815 19.1239 38.6648 19.0802 38.6486 19.0377L38.6435 19.0235L38.627 18.9831L38.6069 18.9334L38.6024 18.9239V18.9226C38.5678 18.8421 38.532 18.764 38.4938 18.6908L38.4634 18.6367C38.4211 18.5672 38.3766 18.4991 38.3299 18.4325L38.3117 18.4052L38.2889 18.3751C38.2562 18.3303 38.2234 18.2866 38.1907 18.2456L38.1457 18.1892C38.103 18.1381 38.059 18.0881 38.0137 18.0393V18.0389C37.9611 17.9832 37.9065 17.9294 37.8499 17.8777C37.789 17.8395 37.7262 17.8042 37.662 17.7719C37.6418 17.7614 37.6212 17.7534 37.6003 17.7442C37.5597 17.7249 37.5184 17.7071 37.4764 17.6911C37.4522 17.682 37.4287 17.6747 37.4049 17.6665C37.3679 17.6543 37.3306 17.643 37.293 17.6328C37.2684 17.6269 37.2437 17.6215 37.219 17.6166C37.1589 17.6035 37.0981 17.5943 37.0368 17.5889C37.0012 17.5852 36.9652 17.5838 36.9295 17.5823C36.9055 17.5815 36.8816 17.5812 36.8576 17.5816C36.8209 17.5823 36.7843 17.5841 36.7477 17.5871C36.7254 17.5889 36.7026 17.5907 36.6804 17.5931L36.6313 17.6004C36.6089 17.6044 36.5865 17.6067 36.5634 17.6113C36.544 17.6146 36.5241 17.6178 36.5047 17.6219C36.4592 17.6313 36.4141 17.643 36.3693 17.6559L36.3298 17.6661C36.2116 17.7014 36.0933 17.7468 35.9765 17.8L35.9374 17.8186C35.8919 17.8395 35.8464 17.8615 35.8008 17.8848L35.7484 17.9131C35.7071 17.9346 35.6658 17.9573 35.6248 17.9805L35.5688 18.0133C35.5282 18.0369 35.4875 18.061 35.4469 18.0861L35.3918 18.1202C35.3496 18.1466 35.307 18.1739 35.2644 18.2016L35.2175 18.2324C35.1696 18.2637 35.1214 18.2957 35.0734 18.3283L35.0446 18.3476C34.9908 18.3844 34.9358 18.4223 34.8809 18.4602L34.8791 18.4618L34.8707 18.4669H34.8712C34.769 18.5372 34.6671 18.6092 34.5638 18.6809C34.4775 18.7412 34.3893 18.8015 34.3009 18.8614L34.2583 18.8908C34.1692 18.9507 34.0791 19.0091 33.9887 19.0674L33.9432 19.0958C33.8522 19.1523 33.7611 19.2075 33.669 19.2598L33.6206 19.2867C33.5282 19.3386 33.4344 19.3878 33.3392 19.4342L33.2919 19.4565C33.1958 19.502 33.0979 19.5448 32.9988 19.5821L32.9578 19.5978C32.8556 19.6358 32.7516 19.669 32.6463 19.6974L32.6187 19.7038C32.5072 19.7326 32.3956 19.7555 32.2808 19.7712C32.0891 19.7955 31.8959 19.8073 31.7026 19.8065C31.3852 19.8068 31.0682 19.783 30.7544 19.7351C30.6479 19.7187 30.5416 19.7007 30.4356 19.681C30.3978 19.6737 30.3601 19.6681 30.3228 19.6608C30.0463 19.6069 29.7679 19.5426 29.4877 19.475C29.3698 19.447 29.2523 19.4186 29.1341 19.3898C28.9443 19.3435 28.7525 19.2987 28.5606 19.255C28.5226 19.2461 28.486 19.2366 28.4474 19.2282L28.4492 19.2281L28.3679 19.2109C28.3253 19.2017 28.2828 19.1925 28.2406 19.1829L28.1185 19.1587L28.0972 19.1543L28.083 19.1516L27.9709 19.1293C27.884 19.113 27.7963 19.0973 27.7086 19.0827C27.6826 19.0782 27.6564 19.0749 27.6307 19.0709C27.5658 19.0605 27.5008 19.0509 27.4357 19.0419C27.4029 19.0372 27.3695 19.0341 27.3371 19.0301L27.3298 19.0294C27.2731 19.022 27.2162 19.0154 27.1593 19.0097C27.1217 19.006 27.0834 19.0029 27.0462 18.9993C27.0292 18.998 27.0121 18.9971 26.9947 18.9957C26.9561 18.9927 26.9168 18.9895 26.8777 18.9873C26.781 18.9806 26.6842 18.9769 26.5873 18.976C26.5695 18.976 26.5516 18.9756 26.5338 18.9753C26.5174 18.9751 26.5005 18.9744 26.484 18.9744C26.4097 18.9745 26.3353 18.9762 26.2611 18.9795C26.2418 18.98 26.2214 18.9798 26.2016 18.9813C26.1063 18.9854 26.0112 18.9925 25.9163 19.0026C25.8916 19.0051 25.8668 19.009 25.8417 19.0113C25.7799 19.0186 25.718 19.027 25.6562 19.0365L25.6283 19.0405C25.5945 19.0456 25.5601 19.0519 25.5264 19.058C25.4628 19.0696 25.3998 19.0818 25.3361 19.0957C25.2994 19.1038 25.2628 19.1119 25.2262 19.1212C25.1635 19.1361 25.1002 19.153 25.0368 19.1709C24.9311 19.1997 24.8265 19.2329 24.7236 19.2705C24.6924 19.2814 24.6615 19.2911 24.6304 19.3033C24.5289 19.3406 24.4286 19.3813 24.3298 19.4253C23.5415 19.8797 22.8643 20.4999 22.326 21.2231C22.1466 21.4642 21.9827 21.7164 21.8351 21.9782C21.6797 22.2552 21.543 22.5422 21.4258 22.8373C21.3333 23.0679 21.2529 23.3032 21.1849 23.5422C21.1805 23.558 21.1769 23.5744 21.1725 23.5906C21.0779 23.936 21.011 24.2883 20.9724 24.6443C20.9615 24.7424 20.9516 24.8404 20.9451 24.9388C20.9289 25.2033 20.9292 25.4687 20.946 25.7332C20.9469 25.7571 20.9491 25.7815 20.9507 25.8052C20.9553 25.8729 20.9576 25.9399 20.9649 26.0079C20.9844 26.1962 21.0111 26.3847 21.049 26.5716C21.0623 26.6408 21.081 26.7056 21.0976 26.7723C21.1132 26.836 21.1272 26.9016 21.1443 26.9637V26.9633C21.2705 27.4176 21.4544 27.8539 21.6914 28.2614C22.5503 29.7468 23.9625 30.6353 24.9857 31.1119C25.3921 31.2908 25.8077 31.4479 26.2307 31.5825C26.2307 31.5825 26.2103 31.5953 26.1789 31.6166C25.9169 31.6834 25.6575 31.7602 25.4013 31.8466C25.1652 31.9261 24.9319 32.0136 24.7017 32.1089C24.0376 32.3843 23.2837 32.776 22.6158 33.3171C22.5321 33.3845 22.4501 33.4545 22.3695 33.5266C22.232 33.6511 22.1006 33.7823 21.9759 33.9196C21.9616 33.9353 21.9463 33.9502 21.9326 33.9661C21.9135 33.9872 21.8948 34.0092 21.8762 34.0307C21.8288 34.0863 21.7816 34.1429 21.7362 34.2008L21.6816 34.2704C21.6215 34.3498 21.5628 34.4303 21.5075 34.5139C21.4529 34.5959 21.4007 34.6806 21.3512 34.7664C20.9553 35.4581 20.7308 36.2864 20.7997 37.2741L20.8017 37.2639L20.803 37.2566L20.8103 37.2198L20.8125 37.2116C20.8154 37.1967 20.8197 37.1789 20.8243 37.1595L20.827 37.1472C20.8325 37.1248 20.8388 37.0989 20.8461 37.0708L20.851 37.0526L20.878 36.955H20.8785C20.8881 36.9204 20.9003 36.8831 20.9125 36.8446L20.9203 36.8212C20.9333 36.782 20.9475 36.741 20.9629 36.6989L20.9711 36.6787C20.9855 36.6387 21.0015 36.5979 21.0188 36.5556L21.027 36.5361C21.0457 36.4906 21.0664 36.4436 21.0879 36.3959L21.1017 36.366C21.1248 36.3172 21.1483 36.2677 21.1745 36.2176V36.2174L21.178 36.2116C21.2171 36.1367 21.2611 36.0604 21.3081 35.9835C21.3257 35.9544 21.3426 35.9256 21.3623 35.8965L21.3772 35.8721L21.3776 35.8715C21.4525 35.7586 21.5342 35.6502 21.6221 35.547C21.6348 35.532 21.6485 35.5171 21.6621 35.502C21.6943 35.4656 21.728 35.4291 21.7629 35.3934C21.7773 35.3792 21.7913 35.3643 21.8057 35.3503C21.8535 35.3035 21.9024 35.2577 21.9545 35.2135L21.9588 35.2093V35.2095V35.2093C21.9588 35.2093 21.0601 37.2444 21.4509 38.8583C21.4509 38.8583 21.4505 38.8534 21.4505 38.8448V38.8348C21.4501 38.8257 21.4501 38.8155 21.4501 38.8016C21.4501 38.7991 21.4501 38.7958 21.4498 38.7929C21.4501 38.7765 21.4501 38.7572 21.4509 38.7342C21.4509 38.7313 21.4509 38.7288 21.4512 38.7253C21.4512 38.7016 21.4531 38.6749 21.4542 38.6452L21.4547 38.6366C21.4587 38.5619 21.4645 38.4872 21.4722 38.4128L21.4733 38.403C21.4773 38.3623 21.4831 38.3203 21.4891 38.276C21.4894 38.2722 21.4904 38.2682 21.4909 38.2642C21.4976 38.2174 21.5055 38.1687 21.5146 38.1186L21.5167 38.1068L21.5215 38.0817V38.0806C21.5324 38.0241 21.5457 37.9666 21.5606 37.9083C21.5617 37.9046 21.5624 37.9005 21.5633 37.8966C21.5786 37.8396 21.595 37.7819 21.6133 37.724L21.6304 37.6708L21.6428 37.6338V37.6331C21.6599 37.5856 21.6785 37.5378 21.6987 37.4905L21.7018 37.4828L21.7019 37.4825C21.7382 37.3984 21.7798 37.3167 21.8264 37.2379C21.8637 37.1748 21.9028 37.1131 21.9472 37.0546L21.949 37.0517V37.0521V37.0517H21.9492C21.9492 37.0517 21.8977 37.5529 21.911 38.1492C21.9155 38.3101 21.9244 38.4708 21.9377 38.6312C21.9378 38.6314 21.9379 38.6316 21.9379 38.6319C21.9115 39.0562 21.9189 39.482 21.9599 39.9052C22.0314 40.6384 22.2055 41.4141 22.5121 42.2308C22.5121 42.2308 22.231 41.2917 22.6358 40.3525C22.6724 40.4381 22.7115 40.524 22.7523 40.6107C22.7856 40.8894 22.8418 41.285 22.9237 41.7206C23.0019 42.4466 23.3488 44.6242 24.8267 46.1559C24.8267 46.1559 24.2682 45.4303 24.3549 44.4857C24.4132 44.6098 24.471 44.7218 24.526 44.8181C24.7789 45.2919 25.2817 46.1741 25.8299 46.7857C25.8299 46.7857 25.3851 45.9233 25.4888 45.7375C25.4888 45.7375 26.939 47.5428 27.4004 47.7189L26.7938 46.7121L26.7802 46.6826C28.8875 48.2123 31.7789 48.7802 35.355 47.7832C36.0018 47.6011 36.6376 47.3819 37.2592 47.1266C37.6648 46.9515 38.0627 46.759 38.4519 46.5498L38.5091 46.518C38.7871 46.3653 39.0605 46.2042 39.3287 46.0348L39.3347 46.0311C39.8902 45.6809 40.4222 45.2948 40.9274 44.8751L40.9283 44.8748L40.9295 44.8737C40.9481 44.8573 40.9672 44.8413 40.9867 44.8249C41.2988 44.5522 41.5981 44.2652 41.8836 43.9649C42.2376 43.5914 42.57 43.198 42.8792 42.7867L42.901 42.7582C42.974 42.6604 43.0455 42.5634 43.1148 42.4668L43.1344 42.4386C43.157 42.4056 43.177 42.3741 43.1994 42.3415C43.2953 42.2044 43.389 42.0657 43.4805 41.9255L43.5453 41.8254C43.5916 41.7523 43.6362 41.6791 43.6808 41.6068C43.7145 41.5502 43.749 41.4935 43.7816 41.4374C43.818 41.3762 43.8544 41.315 43.8898 41.2542C43.9517 41.1452 44.0125 41.0356 44.072 40.9253C44.0951 40.8821 44.1169 40.84 44.1393 40.7974C44.184 40.7126 44.2277 40.6288 44.2692 40.5459C44.2885 40.5071 44.3079 40.4685 44.3267 40.4301L44.3436 40.3936C44.3946 40.2907 44.4444 40.1871 44.493 40.0829L44.5021 40.0611C44.6609 39.9147 44.8056 39.7536 44.9343 39.5801C44.9507 39.5582 44.9676 39.5364 44.9825 39.5147C45.232 39.1544 45.3137 38.8355 45.3182 38.5494M11.7213 33.2334C11.6591 33.2528 11.5888 33.3354 11.5182 33.4481C11.4906 33.4928 11.4645 33.5385 11.44 33.5851C11.2508 33.9408 11.0805 34.4338 11.0805 34.4338C11.0947 34.2644 11.1118 34.0953 11.132 33.9265C11.1343 33.9065 11.1373 33.887 11.1398 33.8668C11.1607 33.692 11.1851 33.5157 11.2109 33.3405C11.2139 33.3191 11.2173 33.2982 11.2204 33.2774C11.2506 33.0798 11.2826 32.8835 11.3159 32.6941L11.3287 32.6212L11.3312 32.6086L11.3428 32.5427C11.3745 32.3656 11.4078 32.1888 11.4429 32.0124C11.4675 31.888 11.4915 31.7701 11.5144 31.6594L11.5217 31.6237C11.5251 31.6062 11.529 31.5904 11.5322 31.5738C11.5359 31.5576 11.5392 31.5408 11.5424 31.5239L11.5437 31.5181C11.5497 31.4904 11.5561 31.462 11.5615 31.4357L11.5634 31.4284C11.5684 31.4024 11.5735 31.3804 11.5786 31.3561C11.5872 31.3179 11.5952 31.2789 11.6032 31.2432L11.6054 31.2334C11.6119 31.2044 11.6179 31.1751 11.6239 31.1487C11.6327 31.1108 11.6407 31.0758 11.6476 31.0427L11.648 31.0418L11.6485 31.0409C11.6525 31.0219 11.6565 31.0055 11.6605 30.9881L11.6612 30.985C11.6651 30.9691 11.6685 30.9525 11.672 30.9385L11.6931 30.8476L11.6983 30.8261L11.7003 30.8181L11.7064 30.7926L11.7105 30.775L11.7114 30.7724L11.7085 30.7748L11.6703 30.8094C11.6367 30.8394 11.6021 30.8688 11.5706 30.9019L11.5359 30.9402C11.498 30.9822 11.4623 31.0262 11.4289 31.0718L11.4111 31.0942C11.3692 31.1525 11.3305 31.2137 11.2935 31.2758V31.276L11.2886 31.2842V31.2846L11.2735 31.3122C11.265 31.3274 11.257 31.343 11.2488 31.3583C11.2275 31.3973 11.2053 31.4352 11.1862 31.4743L11.1853 31.4758L11.1846 31.4771L11.1837 31.4804L11.1762 31.4951L11.1693 31.51C11.1401 31.5709 11.1125 31.6325 11.0865 31.6947C11.0039 31.892 10.934 32.0944 10.8773 32.3007C10.8529 32.3886 10.8358 32.4575 10.8281 32.4912L10.8278 32.4941L10.8223 32.5167V32.5163V32.5167L10.8245 32.4903C10.8274 32.438 10.8334 32.3859 10.8376 32.334C10.8456 32.2247 10.8525 32.1149 10.8645 32.0062C10.8742 31.9147 10.8882 31.8253 10.9011 31.7346L10.9138 31.6497C10.9193 31.6078 10.9251 31.566 10.932 31.5244C10.938 31.4856 10.9466 31.4474 10.9539 31.4093L10.9542 31.4064V31.4062L10.9624 31.3636L10.9648 31.3519C10.9766 31.2869 10.9888 31.222 11.0013 31.1571L11.0079 31.1248L11.0092 31.1188L11.0188 31.0731C11.0225 31.054 11.0279 31.0354 11.0317 31.0174C11.0472 30.9489 11.0638 30.8819 11.0798 30.8143L11.0825 30.803C11.0943 30.7527 11.1052 30.7021 11.1182 30.6526L11.1185 30.6504L11.1198 30.6471L11.1238 30.6325C11.1502 30.5305 11.1795 30.4309 11.2088 30.3306L11.224 30.2752C11.2297 30.2568 11.2344 30.2371 11.2404 30.2186C11.2886 30.0557 11.3405 29.8949 11.3954 29.7377L11.4025 29.7181C11.4498 29.5846 11.4975 29.4531 11.5475 29.3236L11.553 29.3088C11.5757 29.2518 11.599 29.1972 11.6212 29.1407L11.6248 29.1325C11.6591 29.0485 11.6927 28.964 11.7276 28.8828V28.8815L11.7284 28.8804L11.7324 28.8702C11.7416 28.8498 11.7633 28.8005 11.797 28.7276L11.7975 28.7264L11.8021 28.7165C11.8152 28.6877 11.8275 28.6599 11.8403 28.6307L11.9021 28.493L11.9205 28.4532C11.8914 28.4373 11.861 28.4233 11.831 28.4082L11.8141 28.3998L11.7822 28.3838C11.5864 28.29 11.382 28.2154 11.1718 28.161L11.1382 28.1526C10.9206 28.0984 10.6981 28.0661 10.4741 28.0561C10.4045 28.0531 10.3347 28.0523 10.2651 28.0537C10.1595 28.0559 10.0558 28.0649 9.95358 28.0761C9.92083 28.0803 9.88935 28.086 9.8577 28.0902C9.80712 28.0978 9.75709 28.1077 9.70669 28.1168C9.68722 28.121 9.66666 28.1233 9.6472 28.1277C9.54362 28.1495 9.44119 28.1764 9.34027 28.2084C9.30934 28.2182 9.27841 28.226 9.24839 28.2366C9.15833 28.2683 9.07009 28.3029 8.98349 28.3413C8.94892 28.3566 8.91708 28.3743 8.88343 28.3901C8.84395 28.4096 8.80483 28.4306 8.76608 28.4504L8.72605 28.471C8.64402 28.5172 8.56384 28.5667 8.48571 28.6193C8.43986 28.6495 8.39529 28.6801 8.35181 28.7121C8.32506 28.7325 8.29959 28.7537 8.27267 28.7744C8.16628 28.8598 8.06507 28.9515 7.96956 29.0489C7.9117 29.1063 7.8553 29.1647 7.80254 29.2261L7.77561 29.2567C7.74778 29.29 7.72194 29.3252 7.69593 29.36L7.69174 29.3649L7.68847 29.3695C7.67082 29.3928 7.65172 29.4152 7.63443 29.439L7.62752 29.4483L7.62079 29.4576L7.62024 29.4585L7.61988 29.4591C7.51334 29.6089 7.41933 29.7673 7.33879 29.9326C7.32696 29.9563 7.31641 29.9807 7.30513 30.0047C7.26757 30.086 7.23321 30.1688 7.20215 30.2528C7.18996 30.2863 7.17632 30.3187 7.16485 30.3526L7.16431 30.353V30.3531L7.16394 30.3539C7.13556 30.4397 7.11046 30.5267 7.08899 30.6165L7.0808 30.6497L7.07298 30.6919L7.07188 30.6956C7.05733 30.7606 7.04314 30.8254 7.03295 30.8913C7.02767 30.9238 7.0244 30.9569 7.02021 30.9897L7.01876 30.999C7.01457 31.0339 7.01112 31.0693 7.00748 31.1046C7.00439 31.131 7.00057 31.158 6.99838 31.1849C6.99074 31.2889 6.98747 31.3937 6.98983 31.5C6.99201 31.582 6.99929 31.6628 7.00693 31.7437L7.00748 31.7483L7.01021 31.786C7.01457 31.8306 7.0224 31.8747 7.02895 31.9189C7.09953 32.4158 7.2837 32.8897 7.56712 33.3037C7.82224 33.6831 8.15157 34.0067 8.5352 34.2551C8.75487 34.3962 8.99034 34.5109 9.23675 34.597C9.47508 34.6813 9.72397 34.7427 9.98342 34.7711C10.0416 34.7771 10.1008 34.7815 10.1599 34.7857C10.2485 34.7915 10.3367 34.7953 10.427 34.7935C10.5099 34.7917 10.5907 34.7813 10.6724 34.7735C10.719 34.7691 10.767 34.7687 10.813 34.7622C10.9304 34.7458 11.0454 34.7219 11.1587 34.6937L11.1842 34.688C11.2315 34.6757 11.2752 34.6585 11.3208 34.6443C11.4624 34.6013 11.6009 34.5486 11.7353 34.4868L11.7644 34.4739C11.8017 34.4578 11.8404 34.4423 11.8765 34.4239L11.8808 34.4221C11.8148 34.0548 11.7645 33.6848 11.7302 33.3131C11.728 33.2862 11.7242 33.2601 11.7213 33.2334" fill="#FCE9C9"/>
<path d="M25.7435 3.86938L25.8052 3.90092L25.8041 3.89258L25.7435 3.86938Z" fill="#4D94C3"/>
<path d="M44.0341 37.6978C44.0299 37.6814 44.0259 37.665 44.0219 37.6486L43.9981 37.5592C43.8962 37.2282 43.7672 36.9698 43.6524 36.7857C43.5056 36.5478 43.3839 36.4303 43.3839 36.4303C43.4362 36.2488 43.4739 36.0633 43.4967 35.8757C43.5851 35.1217 43.3835 34.5347 43.2219 34.2036C43.1992 34.1568 43.1751 34.1106 43.1497 34.0652C43.0333 34.1481 42.9157 34.2296 42.798 34.3092C40.5648 35.8231 38.0511 36.7944 35.3295 37.2119C33.4538 37.4996 31.4807 37.5266 29.429 37.2765L29.4648 37.2869C29.4648 37.2869 28.2282 37.4563 27.8929 38.6438L27.9138 38.656L27.8116 39.4524C27.8478 40.5308 28.3403 41.2058 28.9008 41.5609C29.4836 41.7835 30.1871 41.9531 30.9683 42.0503C32.3281 42.2195 33.8888 42.1747 35.482 41.9216L35.49 41.9203L35.4982 41.9192C37.617 41.6349 40.6079 40.5022 42.7458 39.0403C43.2329 38.707 43.6759 38.3576 44.0541 37.9963L44.0683 37.9824L44.094 37.9575C44.0755 37.8706 44.0555 37.784 44.0341 37.6978" fill="white"/>
<path d="M39.992 27.4195C38.8449 26.7201 38.6766 26.4879 38.784 24.5882C38.8222 23.9042 38.8962 23.005 38.9724 21.7862C38.9819 21.6339 38.9877 21.4815 38.9901 21.329C38.9908 21.2935 38.9915 21.2591 38.9915 21.2243C38.9929 21.0883 38.9909 20.9524 38.9857 20.8165L38.9844 20.7788L38.9814 20.7385C38.9732 20.5953 38.9618 20.4523 38.9473 20.3096C38.9365 20.2082 38.9229 20.1071 38.9066 20.0064C38.8986 19.9565 38.8888 19.9084 38.8797 19.8598C38.8696 19.8061 38.8586 19.7526 38.8469 19.6993C38.8361 19.648 38.8244 19.597 38.8118 19.5461L38.8112 19.5458L38.8118 19.5452C38.6499 19.302 38.4525 19.0844 38.2263 18.8996L38.1817 18.8662L38.1727 18.8595L38.1392 18.8344L38.1277 18.8258C38.095 18.8003 38.0604 18.7757 38.0264 18.753C37.99 18.7286 37.953 18.705 37.9156 18.6823C37.5764 18.4757 37.1984 18.3461 36.7938 18.286C36.5645 18.2529 36.3327 18.2411 36.1013 18.2506C35.991 18.2546 35.8793 18.2643 35.7671 18.2776C35.4634 18.3139 35.1636 18.3773 34.8712 18.467C34.769 18.5373 34.6671 18.6093 34.5638 18.681C34.4775 18.7413 34.3893 18.8016 34.3009 18.8615L34.2583 18.8908C34.1691 18.9507 34.0791 19.0092 33.9887 19.0675L33.9432 19.0959C33.8522 19.1524 33.7611 19.2076 33.669 19.2598L33.6206 19.2868C33.5282 19.3387 33.4344 19.3879 33.3391 19.4343L33.2918 19.4565C33.1958 19.5021 33.0979 19.5449 32.9987 19.5822L32.9578 19.5979C32.8556 19.6359 32.7516 19.6691 32.6463 19.6975L32.6187 19.7039C32.5071 19.7326 32.3956 19.7556 32.2808 19.7712C32.0891 19.7956 31.8959 19.8074 31.7026 19.8066C31.3852 19.8069 31.0682 19.783 30.7544 19.7352C30.6478 19.7188 30.5416 19.7008 30.4356 19.6811C30.3978 19.6738 30.3601 19.6682 30.3228 19.6609C30.0463 19.607 29.7679 19.5427 29.4877 19.4751C29.3698 19.4471 29.2523 19.4186 29.134 19.3899C28.9443 19.3436 28.7525 19.2988 28.5606 19.2551C28.5226 19.2462 28.486 19.2367 28.4474 19.2283C28.2864 19.2371 28.1248 19.2529 27.9626 19.2733L27.9273 19.2777C27.4465 19.3416 26.9735 19.4542 26.5154 19.6137C26.4896 19.6226 26.4636 19.6301 26.4379 19.6396C26.365 19.6656 26.2924 19.6942 26.2196 19.7228C26.1223 19.7614 26.0249 19.8017 25.9285 19.8445C25.251 20.1439 24.5931 20.5511 23.9812 21.0689C23.7367 21.2765 23.504 21.4978 23.2844 21.7317C22.9575 22.0804 22.6613 22.4566 22.3991 22.8564C22.3847 22.8782 22.3706 22.9001 22.3569 22.9223C22.2204 23.1335 22.0943 23.3513 21.979 23.5749C21.9379 23.6539 21.8964 23.7333 21.8586 23.8131L21.8509 23.8286C21.7294 24.0869 21.6221 24.3517 21.5296 24.6217C21.5244 24.6376 21.5198 24.6536 21.5153 24.6695C21.5022 24.7084 21.4922 24.7474 21.48 24.786C21.4002 25.0368 21.3337 25.2915 21.2809 25.5493C21.2758 25.5774 21.2695 25.6054 21.2647 25.6335C21.2498 25.7129 21.2356 25.7923 21.2229 25.8717C21.1793 26.1609 21.1544 26.4526 21.1483 26.745C21.1461 26.8179 21.1434 26.8913 21.1443 26.9634C21.2705 27.4177 21.4544 27.8539 21.6914 28.2614C22.5503 29.7469 23.9625 30.6353 24.9857 31.112C25.3921 31.2909 25.8076 31.448 26.2307 31.5826L26.2416 31.6014H26.2422L26.244 31.6006L26.2718 31.5793C26.3269 31.5374 26.3819 31.4952 26.4388 31.4536C26.4588 31.4382 26.4794 31.4236 26.4998 31.4085C26.5791 31.3503 26.6592 31.2933 26.7403 31.2376C26.8013 31.195 26.864 31.1517 26.9281 31.1096C26.9492 31.095 26.9706 31.0816 26.9921 31.0673C27.0567 31.0245 27.1224 30.9817 27.1897 30.9395L27.2561 30.8978L27.4624 30.7717C27.4862 30.7575 27.5106 30.7432 27.5345 30.7286C27.6043 30.6882 27.6749 30.6466 27.7473 30.6055C27.7735 30.5914 27.7995 30.5767 27.8256 30.5618C27.8967 30.5217 27.9693 30.482 28.0433 30.4425C28.0724 30.427 28.1017 30.4111 28.1318 30.3957C28.2045 30.357 28.278 30.3188 28.3528 30.2809L28.4492 30.2325C28.5236 30.1953 28.599 30.1585 28.6747 30.1219C28.7105 30.1046 28.7471 30.0878 28.7833 30.0705C28.8577 30.0354 28.933 30.0004 29.0096 29.9656C29.0493 29.9472 29.0909 29.9296 29.1319 29.9112C29.207 29.8776 29.2824 29.8449 29.3582 29.8128C29.4031 29.7928 29.4493 29.7739 29.4948 29.7549C29.5691 29.724 29.6442 29.693 29.7204 29.662C29.7712 29.642 29.8229 29.622 29.8742 29.6014C29.9478 29.5728 30.0219 29.5438 30.0972 29.5154C30.1536 29.4936 30.2113 29.4722 30.2681 29.4517C30.341 29.4249 30.4134 29.3981 30.488 29.3715L30.6787 29.3056C30.75 29.2808 30.8217 29.2557 30.8945 29.2322C30.9641 29.2085 31.0349 29.1861 31.1055 29.1635C31.1752 29.1408 31.2447 29.1184 31.3155 29.0963C31.393 29.0721 31.4717 29.0486 31.5513 29.0246C31.6175 29.0053 31.6841 28.9847 31.7516 28.9654C31.8371 28.9402 31.9249 28.9162 32.0117 28.8918C32.0554 28.88 32.0976 28.8667 32.1415 28.8554C32.4811 27.9994 33.4891 25.8772 35.2158 25.645C35.3854 25.6206 35.5565 25.6078 35.7278 25.6067C35.7674 25.6062 35.81 25.6032 35.8479 25.6042C35.8279 25.481 35.8122 25.3528 35.8042 25.2195C35.75 24.305 36.0309 23.5448 36.4312 23.5206C36.7412 23.4955 36.9879 23.9488 37.0299 24.1074C37.1478 24.3855 37.2304 24.7407 37.2542 25.1346C37.2755 25.4945 37.2422 25.8267 37.1736 26.1037C37.2086 26.1398 37.2373 26.1797 37.2686 26.2179C37.6641 26.7093 37.7311 27.3909 37.7147 27.8737C37.8685 27.8582 38.0264 27.8445 38.1841 27.8311L38.3047 27.8198L38.3297 27.8176C38.3524 27.8152 38.3751 27.8139 38.3979 27.8121C38.5933 27.7959 38.7909 27.7808 38.9912 27.7666L39.0003 27.766C39.454 27.7344 39.92 27.7076 40.4008 27.687C40.151 27.5031 39.992 27.4193 39.992 27.4193M44.3368 40.2216C43.6235 40.8561 42.8416 41.4088 42.0057 41.8695C41.6267 42.0778 41.2381 42.2681 40.8413 42.4399C40.0692 42.7762 39.2699 43.0457 38.4519 43.2455C36.8627 43.6331 35.742 43.6338 35.742 43.6338C36.6111 44.115 37.7111 44.1196 38.4656 44.0432C38.985 43.9915 39.342 43.9021 39.342 43.9021C39.3273 44.2004 39.2896 44.4971 39.2292 44.7896C39.1706 45.074 39.0859 45.3523 38.9761 45.621L38.9679 45.6429L38.9672 45.6442C38.8467 45.9366 38.6927 46.2141 38.5083 46.471C38.4894 46.4969 38.471 46.5248 38.4519 46.5499L38.5091 46.518C38.7871 46.3654 39.0605 46.2042 39.3287 46.0348L39.3347 46.0312C39.8901 45.681 40.4222 45.2949 40.9273 44.8752L40.9283 44.8748L40.9295 44.8738C40.9481 44.8574 40.9672 44.8413 40.9867 44.8249C41.2987 44.5523 41.598 44.2653 41.8836 43.9649C42.2376 43.5915 42.57 43.1981 42.8792 42.7867L42.901 42.7583C42.974 42.6605 43.0455 42.5634 43.1148 42.4669L43.1344 42.4387C43.157 42.4057 43.177 42.3742 43.1994 42.3416C43.2953 42.2045 43.389 42.0658 43.4805 41.9256L43.5452 41.8254C43.5916 41.7524 43.6362 41.6792 43.6808 41.6069C43.7144 41.5502 43.749 41.4936 43.7816 41.4375C43.818 41.3763 43.8543 41.3151 43.8898 41.2543C43.9517 41.1453 44.0124 41.0357 44.0719 40.9253C44.095 40.8822 44.1169 40.8401 44.1393 40.7975C44.184 40.7126 44.2277 40.6288 44.2692 40.546C44.2884 40.5072 44.3079 40.4686 44.3267 40.4301L44.3436 40.3937C44.3946 40.2907 44.4444 40.1872 44.4929 40.083C44.4407 40.1307 44.3887 40.1759 44.3368 40.2214M25.4011 31.8467C25.1651 31.9262 24.9318 32.0137 24.7017 32.109C24.0376 32.3843 23.2837 32.7761 22.6158 33.3172C22.5321 33.3846 22.4501 33.4545 22.3695 33.5267C22.232 33.6512 22.1006 33.7823 21.9759 33.9197C21.9616 33.9354 21.9463 33.9503 21.9326 33.9661C21.9135 33.9873 21.8948 34.0093 21.8762 34.0308C21.8287 34.0863 21.7816 34.143 21.7361 34.2009L21.6816 34.2705C21.6215 34.3499 21.5628 34.4304 21.5074 34.514C21.4529 34.5959 21.4006 34.6806 21.3512 34.7664C20.9553 35.4581 20.7308 36.2865 20.7997 37.2742L20.8017 37.264L20.803 37.2567L20.8103 37.2199L20.8124 37.2117C20.8154 37.1968 20.8197 37.1789 20.8243 37.1596L20.827 37.1472C20.8325 37.1248 20.8388 37.099 20.8461 37.0709L20.851 37.0527L20.8779 36.9551H20.8785C20.8881 36.9205 20.9003 36.8831 20.9125 36.8447L20.9203 36.8212C20.9333 36.7821 20.9474 36.7411 20.9629 36.699L20.9711 36.6788C20.9855 36.6387 21.0015 36.5979 21.0188 36.5557L21.0269 36.5362C21.0457 36.4906 21.0664 36.4437 21.0879 36.3959L21.1017 36.3661C21.1248 36.3173 21.1483 36.2677 21.1745 36.2176V36.2175L21.178 36.2116C21.2171 36.1368 21.2611 36.0605 21.308 35.9836C21.3257 35.9545 21.3426 35.9257 21.3623 35.8965L21.3772 35.8721L21.3775 35.8716C21.4525 35.7586 21.5342 35.6502 21.6221 35.547C21.6348 35.5321 21.6484 35.5172 21.6621 35.502C21.6943 35.4656 21.728 35.4292 21.7629 35.3935C21.7773 35.3793 21.7913 35.3644 21.8056 35.3503C21.8535 35.3035 21.9024 35.2578 21.9545 35.2135L21.9588 35.2094V35.2095V35.2094C21.9588 35.2094 21.0601 37.2445 21.4509 38.8583C21.4509 38.8583 21.4505 38.8534 21.4505 38.8449V38.8349C21.4501 38.8257 21.4501 38.8155 21.4501 38.8017C21.4501 38.7992 21.4501 38.7959 21.4498 38.793C21.4501 38.7766 21.4501 38.7573 21.4509 38.7343C21.4509 38.7314 21.4509 38.7289 21.4512 38.7254C21.4512 38.7017 21.453 38.6749 21.4541 38.6453L21.4547 38.6367C21.4587 38.5619 21.4645 38.4873 21.4721 38.4129L21.4732 38.403C21.4772 38.3624 21.4831 38.3203 21.4891 38.2761C21.4894 38.2723 21.4903 38.2682 21.4909 38.2642C21.4976 38.2174 21.5054 38.1688 21.5145 38.1187L21.5167 38.1069L21.5215 38.0817V38.0806C21.5324 38.0242 21.5457 37.9666 21.5606 37.9084C21.5617 37.9047 21.5624 37.9005 21.5633 37.8967C21.5786 37.8397 21.595 37.782 21.6133 37.724L21.6304 37.6709L21.6428 37.6339V37.6332C21.6599 37.5856 21.6785 37.5379 21.6987 37.4905L21.7018 37.4829L21.7019 37.4825C21.7382 37.3984 21.7798 37.3167 21.8264 37.2379C21.8637 37.1749 21.9028 37.1132 21.9472 37.0547L21.949 37.0518V37.0522V37.0518H21.9492C21.9492 37.0518 21.8977 37.553 21.911 38.1493C21.9155 38.3102 21.9244 38.4709 21.9377 38.6312C21.9761 38.0191 22.0858 37.4136 22.2647 36.827C22.3123 36.6722 22.3642 36.5216 22.4193 36.373C22.427 36.3515 22.4344 36.33 22.4424 36.3087C22.5563 36.009 22.6862 35.7156 22.8316 35.4299C22.8421 35.4103 22.8521 35.3909 22.8623 35.3713C22.9972 35.1119 23.1439 34.8589 23.3021 34.6131L23.3357 34.5602C23.3943 34.4708 23.4542 34.3845 23.5142 34.2989C23.5299 34.2761 23.5451 34.2521 23.5608 34.2297C23.5755 34.2096 23.5893 34.1896 23.6037 34.1696C23.6801 34.0639 23.7569 33.961 23.8344 33.8616L23.8713 33.8148C23.9519 33.7124 24.0324 33.6126 24.1131 33.5174L24.1175 33.5123C24.2164 33.3952 24.3177 33.2802 24.4213 33.1673C24.4952 33.087 24.5683 33.0098 24.6409 32.9355C24.6682 32.9076 24.6964 32.8799 24.7244 32.8517C24.885 32.6894 25.0505 32.5321 25.2206 32.38C25.688 31.9612 26.052 31.7024 26.1788 31.6168C25.9168 31.6837 25.6575 31.7604 25.4012 31.8469" fill="#EFCFA5"/>
<path d="M37.353 27.3399C37.353 27.3399 37.3479 27.2879 37.3294 27.2095C37.2564 26.9119 36.9626 26.21 35.806 26.3213C34.5967 26.4379 34.1904 27.4148 34.0864 27.7476C34.0649 27.8168 34.0554 27.8601 34.0554 27.8601L34.0884 27.8882C34.2417 27.7578 34.5343 27.7732 34.7997 27.9419C34.9131 28.0128 35.0098 28.1072 35.0836 28.2187V28.2193C35.1858 28.3768 35.2142 28.5467 35.1418 28.6728C35.1265 28.7001 35.1072 28.7229 35.085 28.7429C35.085 28.7429 35.1316 28.7609 35.21 28.7837C35.546 28.883 36.4779 29.0787 36.9821 28.4267C37.0064 28.3954 37.0312 28.3663 37.0534 28.3313C36.9542 28.2805 36.8987 28.1348 36.8986 27.9619C36.8978 27.8736 36.9104 27.7857 36.9359 27.7011C37.0186 27.4272 37.2057 27.2655 37.353 27.3399M31.3579 36.2325C30.6946 36.3694 30.0284 36.492 29.3598 36.6L29.4486 36.6113C30.3365 36.7217 31.7501 36.8554 33.4596 36.7508C36.57 36.5612 40.6637 35.5815 44.3811 32.2258L44.3913 32.2127V32.2068C44.4036 31.9258 44.3661 31.4182 44.0114 31.0234C43.9461 30.9511 43.8735 30.8858 43.7949 30.8285C43.781 30.8205 43.7681 30.8114 43.7537 30.8032C43.6562 30.7485 43.5709 30.6932 43.4918 30.6385C43.4292 30.5997 43.3682 30.5585 43.3089 30.515L43.3007 30.5032C43.0655 30.8391 42.8011 31.1536 42.5108 31.443C42.4038 31.5485 42.2941 31.6513 42.1818 31.7512C41.1562 32.676 39.831 33.4462 38.4004 34.0806C36.0233 35.1346 33.3663 35.8185 31.3577 36.2325M11.6703 30.8094C11.6367 30.8394 11.6021 30.8687 11.5706 30.9019L11.5359 30.9401C11.498 30.9822 11.4623 31.0261 11.4289 31.0718L11.4111 31.0942C11.3692 31.1525 11.3305 31.2137 11.2935 31.2758V31.276L11.2886 31.2842V31.2845L11.2735 31.3122C11.265 31.3273 11.257 31.343 11.2488 31.3583C11.2275 31.3973 11.2053 31.4352 11.1862 31.4743L11.1853 31.4758L11.1846 31.477L11.1836 31.4803L11.1762 31.4951L11.1693 31.51C11.1401 31.5708 11.1125 31.6324 11.0865 31.6947C11.0039 31.892 10.934 32.0944 10.8773 32.3006C10.8529 32.3886 10.8358 32.4575 10.8281 32.4911L10.8278 32.4941L10.8223 32.5166V32.5163V32.5166L10.8245 32.4902C10.8274 32.438 10.8334 32.3859 10.8376 32.334C10.8456 32.2247 10.8525 32.1149 10.8645 32.0061C10.8742 31.9147 10.8882 31.8253 10.9011 31.7346L10.9138 31.6497C10.9193 31.6078 10.9251 31.5659 10.932 31.5244C10.938 31.4856 10.9466 31.4474 10.9539 31.4093L10.9542 31.4064V31.4062L10.9624 31.3636L10.9648 31.3519C10.9766 31.2869 10.9888 31.2219 11.0013 31.157L11.0079 31.1248L11.0092 31.1188L11.0188 31.0731C11.0225 31.054 11.0279 31.0354 11.0317 31.0173C11.0472 30.9489 11.0638 30.8818 11.0798 30.8143L11.0825 30.803C11.0943 30.7527 11.1052 30.7021 11.1182 30.6525L11.1185 30.6504L11.1198 30.6471L11.1238 30.6325C11.1502 30.5305 11.1795 30.4309 11.2088 30.3305L11.224 30.2752C11.2297 30.2568 11.2344 30.2371 11.2404 30.2185C11.2886 30.0557 11.3405 29.8949 11.3954 29.7377L11.4025 29.718C11.4498 29.5845 11.4975 29.453 11.5475 29.3235L11.553 29.3088C11.5757 29.2518 11.599 29.1971 11.6212 29.1407L11.6248 29.1325C11.659 29.0485 11.6927 28.964 11.7276 28.8828V28.8815L11.7284 28.8804L11.7324 28.8702C11.7416 28.8498 11.7633 28.8005 11.797 28.7276L11.7975 28.7263L11.8021 28.7165C11.8152 28.6877 11.8275 28.6599 11.8403 28.6307L11.9021 28.493L11.9205 28.4531C11.8914 28.4373 11.861 28.4233 11.831 28.4081L11.8141 28.3998L11.7822 28.3837C11.5864 28.2899 11.382 28.2153 11.1718 28.161L11.1382 28.1526C10.9206 28.0984 10.6981 28.066 10.4741 28.0561C10.4045 28.0531 10.3347 28.0523 10.2651 28.0537C10.1595 28.0559 10.0558 28.0648 9.95358 28.0761C9.92083 28.0801 9.88935 28.086 9.8577 28.0901C9.80712 28.0978 9.75708 28.1076 9.70669 28.1167C9.68722 28.1209 9.66666 28.1233 9.6472 28.1277C9.54362 28.1495 9.44119 28.1764 9.34027 28.2083C9.30934 28.2182 9.27841 28.226 9.24839 28.2366C9.15833 28.2683 9.07009 28.3029 8.98349 28.3413C8.94892 28.3566 8.91708 28.3743 8.88343 28.3905C8.84395 28.4096 8.80483 28.4305 8.76608 28.4506L8.72605 28.471C8.64402 28.5172 8.56384 28.5667 8.48571 28.6192C8.43986 28.6495 8.39529 28.6801 8.35181 28.7121C8.32506 28.7325 8.29959 28.7536 8.27266 28.7744C8.16628 28.8598 8.06507 28.9515 7.96956 29.0489C7.91171 29.1059 7.856 29.165 7.80254 29.2261L7.77561 29.2567C7.74778 29.29 7.72194 29.3252 7.69593 29.36L7.69174 29.3649L7.68847 29.3694C7.67082 29.3927 7.65172 29.4151 7.63443 29.4392L7.62752 29.4483L7.62079 29.4576L7.62024 29.4585L7.61988 29.459C7.51326 29.6089 7.41975 29.7678 7.33878 29.9333C7.32696 29.957 7.31641 29.9807 7.30567 30.0047C7.26783 30.0856 7.23381 30.1684 7.20215 30.2528C7.18996 30.2863 7.17631 30.3187 7.16485 30.3526L7.16431 30.3529V30.3531C7.17086 30.375 7.17813 30.3956 7.18468 30.417C7.20779 30.4921 7.23126 30.5649 7.256 30.6356L7.26455 30.6598L7.27383 30.6844C7.3686 30.9487 7.48237 31.2057 7.61424 31.4536C7.62752 31.4778 7.64062 31.5031 7.65353 31.5262L7.66281 31.5433L7.67518 31.5639C7.73498 31.6702 7.79858 31.7744 7.86585 31.8761C7.94036 31.9891 8.02007 32.0987 8.10474 32.2043L8.1393 32.2462C8.14804 32.2567 8.15623 32.2662 8.16387 32.2748C8.18661 32.3008 8.20062 32.3159 8.20062 32.3161C8.19188 32.2792 8.18752 32.2427 8.17988 32.2052C8.12749 31.9468 8.09772 31.6843 8.09091 31.4208V31.4055L8.09018 31.3758C8.08635 31.2137 8.0906 31.0515 8.10292 30.8899C8.14434 31.0359 8.19064 31.1804 8.24174 31.3233L8.25192 31.3527L8.25611 31.3634C8.36866 31.6688 8.50739 31.964 8.67074 32.2455C8.83558 32.5296 8.98658 32.7308 9.07682 32.8416C9.10448 32.8761 9.13331 32.9096 9.16324 32.9421C9.10067 32.6681 9.0643 32.3888 9.05463 32.1079C9.05013 32.0166 9.04831 31.9251 9.04917 31.8337C9.05081 31.7182 9.05681 31.6045 9.06627 31.4925V31.4929V31.4925C9.11649 31.6841 9.17416 31.8615 9.23584 32.0287L9.2402 32.0415C9.4618 32.6427 9.73543 33.0849 9.92428 33.3468L9.94575 33.3758C9.97905 33.4202 10.0076 33.4577 10.0336 33.4912C10.0516 33.5138 10.0686 33.5357 10.0828 33.5519C10.104 33.5781 10.1259 33.6036 10.1486 33.6286L10.1408 33.5892C10.1324 33.5501 10.1243 33.5108 10.1166 33.4716C10.0905 33.3327 10.0711 33.1927 10.0584 33.0519C10.0487 32.9601 10.0417 32.868 10.0374 32.7758C10.0346 32.6898 10.034 32.6038 10.0356 32.5177L10.0371 32.4717C10.0385 32.4274 10.0395 32.383 10.0418 32.3393L10.0435 32.3121L10.0453 32.2926C10.052 32.1801 10.0616 32.0686 10.0757 31.9593V31.9599V31.9595C10.1118 32.0817 10.1523 32.2025 10.197 32.3218L10.2008 32.332L10.207 32.3491L10.2179 32.3795C10.2788 32.5396 10.3469 32.6969 10.4221 32.8509C10.4776 32.9658 10.5341 33.072 10.5887 33.169C10.6206 33.2237 10.6508 33.2752 10.681 33.3246C10.7443 33.428 10.8114 33.5289 10.8824 33.6273L10.904 33.6568C10.9434 33.7106 10.9841 33.7633 11.0261 33.8151C11.0634 33.8604 11.0898 33.8901 11.1016 33.903L11.1083 33.9103L11.132 33.9265C11.1343 33.9065 11.1373 33.887 11.1398 33.8668C11.1607 33.6919 11.1851 33.5156 11.2109 33.3404C11.2139 33.3191 11.2173 33.2982 11.2204 33.2774C11.2506 33.0798 11.2826 32.8835 11.3159 32.694L11.3287 32.6212L11.3312 32.6086L11.3428 32.5427C11.3745 32.3656 11.4078 32.1888 11.4429 32.0123C11.4675 31.8879 11.4915 31.7701 11.5144 31.6594L11.5217 31.6237C11.5251 31.6062 11.529 31.5903 11.5322 31.5738C11.5359 31.5575 11.5392 31.5408 11.5424 31.5239L11.5437 31.518C11.5497 31.4903 11.5561 31.4619 11.5615 31.4357L11.5634 31.4284C11.5684 31.4024 11.5735 31.3803 11.5786 31.3561C11.5872 31.3179 11.5952 31.2789 11.6032 31.2432L11.6054 31.2334C11.6119 31.2044 11.6179 31.1751 11.6239 31.1487C11.6327 31.1108 11.6407 31.0758 11.6476 31.0427L11.648 31.0418L11.6485 31.0408C11.6525 31.0219 11.6565 31.0055 11.6605 30.988L11.6612 30.9849C11.6651 30.9691 11.6685 30.9525 11.672 30.9385L11.6931 30.8476L11.6983 30.8261L11.7003 30.8181L11.7064 30.7926L11.7105 30.7749L11.7114 30.7724L11.7085 30.7747L11.6703 30.8094M36.8427 39.5081C37.136 39.4065 37.3914 39.3245 37.5896 39.238C37.9867 39.0686 38.2 38.9544 38.1867 38.9123C38.1732 38.8692 37.9336 38.9018 37.5117 38.9972C37.3005 39.0466 37.0445 39.0897 36.7503 39.1557C36.604 39.191 36.4424 39.211 36.2749 39.2435C36.1062 39.2728 35.9288 39.3099 35.7416 39.33C35.3721 39.3824 34.9493 39.4301 34.5005 39.4824C34.2792 39.5006 34.0511 39.5194 33.8164 39.5383C33.5793 39.5502 33.3359 39.5624 33.0861 39.5746C32.0876 39.6037 30.9854 39.5585 29.864 39.352C29.2727 39.2478 28.4824 38.979 27.9138 38.6559L27.8929 38.6439C28.2282 37.4564 29.4648 37.287 29.4648 37.287L29.429 37.2764L29.3668 37.2693C29.1868 37.2471 29.0287 37.2256 28.8932 37.2074C28.7964 37.1943 28.7114 37.1827 28.6397 37.1737C28.5708 37.1652 28.5215 37.1601 28.4929 37.1582C27.7481 37.1071 27.34 37.7385 27.1988 38.0121C27.1788 38.0516 27.1602 38.0922 27.1415 38.1336C27.028 38.3958 26.9609 38.6757 26.9434 38.961C26.9066 39.519 27.0502 40.1319 27.4773 40.6535C27.7623 41.0054 28.2578 41.3156 28.9008 41.5609C28.3403 41.2057 27.8478 40.5308 27.8116 39.4524C28.4465 39.7256 29.1865 39.8928 29.7423 39.9917C30.9327 40.2113 32.0814 40.2375 33.1141 40.174C33.3721 40.1525 33.6232 40.1335 33.867 40.1089C34.1111 40.0771 34.348 40.0467 34.5778 40.0168C35.0246 39.9414 35.4369 39.8683 35.824 39.7829C36.0169 39.7467 36.1961 39.6937 36.3655 39.6476C36.5351 39.5984 36.6957 39.5613 36.8427 39.5081" fill="#EFCFA5"/>
<path d="M35.8551 25.6094C36.477 25.624 36.8995 25.8216 37.1809 26.1092C37.2495 25.832 37.2832 25.4998 37.2612 25.1399C37.2373 24.7459 37.1551 24.3908 37.0374 24.1125C36.9955 23.954 36.7485 23.5005 36.4383 23.5257C36.0378 23.5499 35.7578 24.3103 35.8118 25.2246C35.8195 25.3581 35.8348 25.4863 35.8551 25.6096M36.9056 27.9673C36.9062 28.1403 36.9615 28.2858 37.0605 28.3365C37.2093 28.4111 37.3947 28.2483 37.4771 27.9744C37.4849 27.9503 37.4893 27.9265 37.4948 27.903V27.9024C37.5475 27.6535 37.4938 27.4127 37.3598 27.3453C37.2124 27.2706 37.0255 27.4327 36.9431 27.7061C36.9164 27.7953 36.9051 27.884 36.9056 27.9673M34.0818 28.4086C34.1477 28.516 34.247 28.6199 34.374 28.7009C34.6425 28.8714 34.9409 28.8858 35.0921 28.7484C35.1145 28.7284 35.134 28.7051 35.1491 28.6781C35.2215 28.5519 35.1931 28.3822 35.0912 28.2243L35.0908 28.2239C35.017 28.1124 34.9202 28.018 34.807 27.9471C34.5416 27.7784 34.249 27.7629 34.0956 27.8937C34.07 27.9148 34.0482 27.9402 34.0312 27.9687C33.9619 28.0909 33.9876 28.2541 34.0818 28.4082V28.4086M44.3912 32.2138V32.2084L44.3738 32.2337C44.3763 32.2313 44.3791 32.2295 44.3814 32.2271L44.3912 32.2138Z" fill="#59473D"/>
<path d="M44.0687 37.9837L44.0545 37.9972C43.6762 38.3585 43.2329 38.7084 42.7462 39.0415C40.6082 40.5035 37.6174 41.636 35.4982 41.9203L35.49 41.9215L35.482 41.9228C33.8888 42.1761 32.3281 42.2208 30.9683 42.0514C30.1869 41.9541 29.4837 41.7848 28.9008 41.562C28.2584 41.3167 27.7626 41.0065 27.4773 40.6548C27.0501 40.133 26.9066 39.5203 26.9435 38.9623C26.9613 38.6771 27.0284 38.3971 27.1418 38.1349C27.1602 38.0935 27.1791 38.0529 27.1991 38.0134C27.3403 37.7398 27.748 37.1082 28.4933 37.1592C28.5215 37.1615 28.5711 37.1665 28.6397 37.175C28.7114 37.1838 28.7966 37.1954 28.8935 37.2085C29.0287 37.2268 29.1873 37.2482 29.3671 37.2705C29.388 37.2732 29.4084 37.2752 29.429 37.2776C31.4807 37.5274 33.4538 37.5009 35.3295 37.2131C38.0511 36.7956 40.5651 35.8242 42.798 34.3107C42.9162 34.2306 43.0335 34.1492 43.1497 34.0662L44.3738 32.2336C40.6588 35.5838 36.5685 36.5623 33.4596 36.7519C31.7499 36.8565 30.3363 36.723 29.449 36.6126C29.4192 36.6089 29.3895 36.605 29.3598 36.6011C29.0937 36.5673 28.8766 36.5365 28.7216 36.517C28.6441 36.5072 28.5815 36.5006 28.5346 36.4973C28.3112 36.4818 28.0869 36.5083 27.8732 36.5755C27.4502 36.7079 27.0887 36.9938 26.8173 37.3728C26.4818 37.84 26.2842 38.4476 26.2751 39.083C26.2685 39.6059 26.3901 40.1465 26.6704 40.6421C26.6814 40.6619 26.6921 40.6821 26.7039 40.7024C26.7363 40.7566 26.7712 40.8102 26.8076 40.8626C26.8567 40.9347 26.9084 41.0058 26.9654 41.075C27.6167 41.8787 29.0174 42.4767 30.8863 42.7094C32.1507 42.8668 33.6308 42.854 35.236 42.6275C39.9664 41.7715 42.2151 40.2416 43.2536 39.1666C43.3295 39.0883 43.3991 39.0118 43.4628 38.9388C43.8351 38.509 44.0026 38.1784 44.0638 38.0354L44.0721 38.0159C44.0878 37.979 44.094 37.9595 44.0941 37.9586L44.0687 37.9837" fill="#59473D"/>
<path d="M29.0149 21.5617C28.8657 21.4803 28.7029 21.4224 28.5386 21.3816C28.3917 21.3458 28.2422 21.3219 28.0915 21.31C27.5379 21.2616 27.0591 21.3556 27.0591 21.3556C26.9564 21.3789 26.858 21.4055 26.7629 21.4346C26.0107 21.663 25.4871 22.0551 25.1211 22.5075C24.8249 22.8736 24.6324 23.2792 24.5094 23.6706C24.4687 23.8031 24.4335 23.9373 24.4039 24.0728C24.344 24.3601 24.3093 24.6521 24.3002 24.9455C24.2907 25.2741 24.3162 25.4857 24.3162 25.4857C24.44 25.214 24.5765 24.9482 24.7252 24.6893C25.0756 24.0782 25.4555 23.5861 25.8394 23.1907C26.5873 22.4203 27.3492 22.014 27.9398 21.8003C28.5777 21.5696 29.0149 21.5617 29.0149 21.5617M37.9996 20.4893L37.9745 20.4562C37.8873 20.345 37.7839 20.2477 37.6676 20.1675C37.382 19.9708 36.9879 19.8683 36.4413 19.9805C36.4413 19.9805 35.7927 20.1338 35.4134 20.5586C35.4134 20.5586 36.544 20.0752 37.7407 20.9268C37.8499 21.0044 37.9592 21.0944 38.0686 21.1955C38.1866 21.3049 38.2979 21.4213 38.4021 21.5441C38.4021 21.5441 38.3546 21.0221 38.0575 20.5724C38.0393 20.5439 38.02 20.5162 37.9996 20.4893" fill="#E1B27E"/>
<path d="M29.1517 28.7766C29.6152 28.6347 30.084 28.5106 30.557 28.4047C30.6443 28.0131 30.666 27.528 30.6041 27.01C30.4609 25.7952 29.9135 24.8647 29.382 24.9304C28.8502 24.996 28.5364 26.0341 28.6798 27.2482C28.7522 27.8598 28.9272 28.4 29.1515 28.7765" fill="#59473D"/>
<path d="M26.6853 1.59363L25.5706 1.84588L25.8044 3.89266L22.833 2.37861L21.6097 2.74378L21.6288 2.76546L25.2386 6.88416L25.2732 6.8623L25.3197 6.83316C25.432 6.7614 25.5446 6.69001 25.6581 6.61952C25.6976 6.59475 25.7371 6.56907 25.7768 6.54466C25.9405 6.44413 26.1042 6.34541 26.2689 6.24725L24.7355 4.48896L27.2166 5.7034L27.2261 5.69812C27.3007 5.65714 27.3749 5.61598 27.4495 5.57537L27.2208 3.80196L28.3466 5.10547L28.3603 5.09891C28.4556 5.05083 28.5489 5.0053 28.6426 4.95885L28.6717 4.94483L28.7172 4.92188C28.7334 4.91423 28.7498 4.90604 28.7656 4.89802C28.8055 4.87872 28.8464 4.85795 28.8857 4.83865C28.8937 4.83464 28.9013 4.83136 28.9095 4.82736C29.0411 4.76409 29.173 4.70156 29.3052 4.63976L26.6853 1.59363" fill="#FACE56"/>
<path d="M25.5779 1.91029L25.5706 1.84595L25.5779 1.91065V1.91047" fill="#4D94C3"/>
<path d="M25.5706 1.84585L25.7353 1.80869C25.4624 1.68193 25.1382 1.59141 24.7628 1.5446C24.0111 1.4499 23.0566 1.53695 21.9694 1.81835C20.8819 2.09773 19.6628 2.56763 18.3698 3.21237C15.7835 4.5004 12.9044 6.48617 10.1339 9.01633C9.1955 9.87196 8.2956 10.7689 7.43683 11.7046L10.8023 15.8307C11.7441 14.7917 12.7347 13.7979 13.7708 12.8529C15.1995 11.549 16.6561 10.3858 18.0963 9.37476C19.4919 8.39599 20.8703 7.56511 22.1973 6.89287L21.613 4.25817L21.6286 2.76524L21.6095 2.74357L22.8328 2.3784L25.2219 3.60231L25.154 2.76907L25.5706 1.84567" fill="#4D94C3"/>
<path d="M25.5706 1.84595L25.154 2.76917L25.2219 3.60223L25.8044 3.89273L25.5706 1.84595M24.7354 4.48884L27.2164 5.70329L26.2687 6.24713L24.7354 4.48884ZM27.2206 3.80185L27.4493 5.57525L28.3464 5.10536L27.2206 3.80185" fill="#141C26"/>
<path d="M36.6076 3.14612C36.7575 3.14008 36.9076 3.13856 37.0576 3.14157C37.4751 3.15013 37.8672 3.19948 38.2389 3.29237C38.2589 3.29765 38.2796 3.30057 38.2993 3.30585L38.3038 3.30712L38.3184 3.31022L38.355 3.32078L38.3886 3.33098C38.3449 3.30184 38.3002 3.27452 38.2549 3.24775C37.8377 3.08784 37.3963 2.98348 36.9424 2.92501C34.6904 2.63488 32.1265 3.45556 30.6603 4.03838C30.5799 4.07207 30.4989 4.10576 30.4169 4.14037C30.0754 4.28633 29.7364 4.43782 29.3999 4.59479C29.3682 4.60936 29.3365 4.62466 29.3051 4.63959C29.1741 4.70115 29.0429 4.76271 28.9094 4.82718C28.9012 4.83101 28.8935 4.83447 28.8855 4.83848C28.8462 4.85778 28.8053 4.87855 28.7654 4.89785C28.7495 4.90601 28.7334 4.91397 28.7172 4.92171L28.6717 4.94466L28.6425 4.95868C28.5488 5.00513 28.4554 5.05066 28.3601 5.09874L28.3464 5.1053C28.3435 5.10712 28.3406 5.10839 28.3379 5.10985C28.3142 5.12114 28.292 5.13225 28.2688 5.14373L28.2567 5.14956L28.2053 5.17669C27.9573 5.30396 27.7108 5.43389 27.4657 5.56645L27.4493 5.57519C27.3747 5.61581 27.3007 5.65715 27.2259 5.69795L27.2164 5.70323C26.9735 5.83775 26.7321 5.97509 26.4923 6.11521C26.4672 6.12978 26.4421 6.14381 26.4168 6.15874L26.3528 6.19644C26.3328 6.20792 26.3133 6.22012 26.294 6.23196L26.2687 6.24707C26.1043 6.34524 25.9403 6.44396 25.7766 6.54449C25.7369 6.5689 25.6974 6.59458 25.6578 6.61917C25.5444 6.68983 25.4318 6.76123 25.3194 6.83299L25.273 6.86213L25.2384 6.88398C24.4053 7.42032 23.5907 7.98495 22.7961 8.57689C22.7317 8.62497 22.6677 8.67378 22.6031 8.72259C21.3004 9.70428 20.0425 10.7575 18.837 11.8516C17.5643 13.007 16.3517 14.2078 15.2063 15.4141C14.667 15.9542 14.1375 16.504 13.6179 17.0631C12.7454 18.0038 12.2694 18.5853 12.2891 18.5984C12.2969 18.607 12.3737 18.5356 12.51 18.3992C12.3972 18.5303 12.2844 18.6611 12.1737 18.7913C14.0759 16.7611 16.1856 14.6821 18.4509 12.7233C19.8271 11.5345 21.2589 10.3902 22.7382 9.32836V9.32872C23.5896 8.71641 24.4606 8.13194 25.3499 7.57626C25.4569 7.5096 25.565 7.44513 25.6723 7.3792C25.7329 7.34204 25.7937 7.30452 25.855 7.26755C25.9698 7.19834 26.0852 7.13004 26.2001 7.06156C26.3131 6.99508 26.4257 6.92861 26.5389 6.86286C26.5984 6.8288 26.6575 6.79438 26.7168 6.76068C26.8605 6.67858 27.0048 6.59753 27.1497 6.51754C27.2355 6.46982 27.3225 6.42156 27.4089 6.37457L27.4096 6.3742C27.6819 6.22608 27.956 6.08146 28.232 5.94037C28.2546 5.92853 28.2777 5.91705 28.301 5.9054L28.4299 5.83983C28.4871 5.81069 28.5435 5.78118 28.601 5.75259C28.6228 5.74203 28.6437 5.73073 28.6654 5.71981L28.6745 5.71562C28.7134 5.69631 28.7516 5.67792 28.7902 5.65916L28.8144 5.64768L28.8278 5.6404L29.1861 5.46664C29.2075 5.45681 29.2294 5.44534 29.2516 5.43514C29.2898 5.41638 29.3276 5.39944 29.3662 5.38104C29.5029 5.31633 29.6399 5.25216 29.7772 5.18853C29.8145 5.17159 29.8525 5.15302 29.8894 5.13626L29.9477 5.11022L30.0634 5.05813C30.2228 4.986 30.3812 4.91479 30.5364 4.84722C30.6787 4.78529 30.8166 4.72865 30.9552 4.67019C31.7388 4.34053 32.4753 4.06315 33.1598 3.84277C34.4753 3.42041 35.6112 3.18892 36.6076 3.14612" fill="white"/>
</g>
<g clip-path="url(#clip1_2_53)">
<path d="M177.244 35.012L177.222 34.9722L177.178 34.8339L177.199 34.793C178.561 31.9733 180.122 30.3573 181.48 30.3573H181.494C183.028 30.3688 184.088 31.7552 184.074 33.7274C184.064 35.0434 183.486 35.8014 183.004 36.2055C182.453 36.6668 181.72 36.9304 180.992 36.9304C179.197 36.9166 177.965 35.8799 177.244 35.012V35.012ZM176.872 45.6555C176.653 45.9485 176.348 46.0969 175.965 46.0969C175.527 46.0935 175.197 45.9398 174.973 45.6389C174.344 44.7949 174.521 42.8125 175.547 39.2133C175.669 38.7834 175.802 38.351 175.942 37.9281L176.061 37.5689L176.166 37.9323C177.361 42.0871 177.598 44.6855 176.872 45.6552V45.6555ZM132.957 26.5174C132.997 25.6201 133.072 24.7466 133.178 23.9207C133.87 18.5974 135.315 14.8799 136.692 14.8799H136.698C137.355 14.8846 137.683 15.3835 137.676 16.3616C137.658 18.7651 136.141 22.2062 133.17 26.5892L132.938 26.9325L132.957 26.5174V26.5174ZM181.147 38.66L181.195 38.6609C184.087 38.6609 186.123 36.648 186.144 33.7675C186.155 32.3415 185.745 31.0362 184.989 30.0928C184.19 29.0945 183.071 28.5617 181.754 28.5516H181.728C179.949 28.5516 178.298 29.9066 176.679 32.6952L176.551 32.9175L176.467 32.6747C176.147 31.7423 175.817 30.8135 175.477 29.8884C175.325 29.4728 175.257 29.286 175.241 29.2255C175.164 28.924 174.907 28.7364 174.57 28.7364C174.364 28.7364 174.144 28.8071 173.936 28.94C173.729 29.0718 173.614 29.233 173.573 29.4481L173.562 29.4804C171.942 34.5552 170.606 37.0204 169.475 37.0204C169.31 37.019 169.182 36.9649 169.086 36.8578C168.789 36.5285 168.862 35.7459 168.963 34.6623C169.037 33.8665 169.121 32.9652 169.086 32.0092C169.019 30.1708 168.018 29.067 166.408 29.0547C164.362 29.0541 163.036 31.242 162.425 32.5468L162.243 32.9363L162.203 32.5078C162.05 30.8934 161.51 28.965 159.807 28.9521C157.821 28.9521 156.307 31.2936 155.384 33.2591L155.137 33.7857L155.162 33.2038C155.271 30.583 155.361 29.0353 155.429 28.6066C155.496 28.1758 155.461 27.8867 155.321 27.7213C155.188 27.5662 154.937 27.509 154.57 27.532C153.934 27.5727 153.609 27.9613 153.119 29.2645C152.315 31.4049 150.27 36.3844 148.636 36.3844C148.312 36.3822 148.055 36.2711 147.868 36.0549C147.183 35.2661 147.457 33.1337 147.836 30.1828L147.864 29.9596C148.044 28.5626 147.738 28.2645 146.983 28.1248C146.907 28.1104 146.83 28.1028 146.753 28.1021C146.15 28.1021 145.867 28.6826 145.304 30.2953C144.301 33.1654 143.012 36.1842 141.503 36.1842C141.448 36.1842 141.394 36.1797 141.339 36.171C140.539 36.0341 140.557 34.8435 140.579 33.3351C140.59 32.5193 140.604 31.5945 140.479 30.7594C140.254 29.2614 139.375 28.3253 138.185 28.3163C135.81 28.3163 134.209 31.3707 133.464 33.1915L133.295 33.6037L133.239 33.1612C133.093 31.9925 132.997 30.8181 132.951 29.6411L132.949 29.597L132.976 29.5628C137.42 23.9437 139.414 19.8888 139.441 16.4146C139.458 14.1953 138.438 12.8622 136.714 12.8488C135.453 12.8488 132.455 13.9034 131.413 23.6756C131.218 25.5102 131.113 27.3533 131.098 29.1983L131.097 29.2344L131.077 29.2639C129.044 32.2201 124.704 37.3045 120.456 37.3045C116.617 37.3045 113.555 34.185 113.555 28.6792C113.555 21.2979 118.757 16.766 122.671 16.766L122.703 16.7663C123.554 16.7727 124.283 17.0114 124.813 17.4564C125.363 17.9182 125.65 18.566 125.644 19.3288C125.636 20.3478 125.306 20.8717 124.987 21.3775C124.903 21.5073 124.823 21.6398 124.748 21.7746C124.673 21.9129 124.603 22.1139 124.704 22.2858C124.807 22.4619 125.07 22.573 125.39 22.575C126.322 22.575 127.731 21.2205 127.746 19.179C127.762 17.0425 125.971 14.8414 122.774 14.8414C117.937 14.8414 111.422 20.1793 111.422 28.8304C111.422 34.95 115.242 39.1797 120.416 39.1797C124.088 39.1797 127.721 36.5392 130.937 32.1281L131.134 31.8609L131.148 32.1932C131.217 33.8076 131.333 35.0799 131.419 36.0089C131.474 36.6062 131.514 37.0375 131.512 37.2756C131.508 37.7977 131.593 38.1595 131.772 38.3819C131.95 38.6045 132.235 38.7097 132.666 38.7128C133.389 38.7128 133.533 38.2178 133.819 36.9974L133.901 36.6488C134.257 35.1699 135.57 30.343 137.545 30.343C137.868 30.3458 138.117 30.4417 138.293 30.6298C138.729 31.0945 138.682 32.0482 138.627 33.1531C138.592 33.8426 138.556 34.5546 138.625 35.2481C138.812 37.1205 139.616 38.0361 141.086 38.0467C142.596 38.0476 144.17 36.4147 145.001 34.8973L145.158 34.6107L145.219 34.9321C145.373 35.7439 146.059 38.4093 148.207 38.4093C150.154 38.4093 151.823 36.3502 153.654 32.1121L153.894 31.5589L153.879 32.1626C153.84 33.7683 153.753 35.7296 153.753 37.2453C153.752 38.418 153.87 38.8661 154.41 38.8661C154.448 38.8661 154.49 38.8712 154.532 38.8712C155.05 38.8712 155.401 38.5613 155.576 37.9475C156.954 33.125 158.145 30.8788 159.324 30.8788C160.479 30.8881 160.587 33.0089 160.68 36.7574L160.686 37.0204C160.714 38.3311 160.761 38.9113 161.572 38.9175C162.187 38.9175 162.34 38.4318 162.658 37.2366C162.719 37.0086 162.785 36.7588 162.863 36.4887C163.975 32.613 164.897 31.0317 166.045 31.0317C167.028 31.039 167.083 32.0566 167.101 32.3909C167.138 33.1071 167.065 33.8569 166.994 34.5804C166.928 35.2535 166.86 35.9489 166.886 36.5967C166.946 38.1126 167.773 38.9539 169.213 38.9649C171.083 38.9649 172.771 36.7683 174.249 32.4377L174.351 32.1354L174.469 32.4321C174.737 33.1127 175.085 34.0342 175.409 35.1334L175.422 35.1755L175.404 35.215C173.973 38.4074 172.963 41.9634 172.949 43.8627C172.929 46.3649 174.057 47.9906 175.82 48.0046H175.851C176.81 48.0046 179.046 47.6176 179.09 44.0371C179.107 42.5697 178.762 40.4948 178.065 37.869L177.985 37.5681L178.242 37.7408C179.133 38.3339 180.137 38.6516 181.147 38.66V38.66ZM86.979 31.311C86.3494 33.855 85.1425 36.9248 82.9666 37.1006C82.9058 37.1048 82.8466 37.1082 82.7896 37.1082C81.887 37.1082 81.3809 36.5142 81.2854 35.3435C81.1654 33.878 81.7949 32.1626 82.8873 30.9711C83.5831 30.2123 84.3678 29.7947 85.0965 29.7947H85.1113C86.0317 29.8017 86.6764 30.544 86.9728 31.2361L86.9885 31.2717L86.979 31.311V31.311ZM106.932 17.0854L106.963 17.0848C107.168 17.0848 107.348 17.1886 107.499 17.3927C108.213 18.3627 108.223 21.9014 106.996 25.9288C106.293 28.2297 105.35 30.4041 104.267 32.2153L104.094 32.5036L104.05 32.1699C103.922 31.196 103.86 30.1823 103.815 29.3191C103.502 23.2325 105.335 17.1687 106.932 17.0854V17.0854ZM90.3615 38.1945C92.4637 38.0249 94.1324 35.1525 94.7519 33.9256L94.9116 33.609L94.9721 33.9587C95.2692 35.6847 96.2042 38.5852 99.1283 38.6076H99.1528C100.418 38.6076 101.853 37.8308 103.303 36.3614L103.409 36.2532L103.487 36.383C104.463 38.0235 105.773 38.8947 107.167 38.8235C109.22 38.7164 110.466 37.2551 110.576 36.2403C110.604 35.9814 110.536 35.7383 110.388 35.5737C110.204 35.367 109.936 35.3426 109.738 35.5322L109.645 35.6214C109.167 36.0824 108.277 36.9413 107.307 36.9924C106.119 37.0507 105.24 36.3373 104.672 34.8651L104.649 34.8031L104.689 34.7509C107.955 30.4596 110.247 23.9109 110.021 19.5195C109.917 17.4864 109.328 15.0635 107.118 15.0635C107.064 15.0635 107.009 15.0647 106.954 15.0677C106.107 15.1118 105.337 15.5167 104.665 16.2719C102.614 18.5764 101.541 24.2485 101.931 30.7224C102.012 32.0676 102.244 33.3247 102.622 34.4576L102.643 34.5207L102.6 34.5717C101.388 35.9946 100.192 36.7787 99.2321 36.7787C96.9233 36.7787 97.0009 32.8903 97.1838 29.6649C97.2232 28.9694 97.2815 28.5267 97.0769 28.2748C96.9303 28.0948 96.6857 28.0059 96.329 28.0028L96.2871 28.0025C95.466 28.0025 95.2938 28.1722 94.8733 29.3971C93.9986 31.9419 92.2725 36.2122 90.5357 36.2122C90.0541 36.208 89.6867 36.0426 89.4355 35.7206C88.5929 34.6402 89.2328 31.9467 89.7465 29.7818C89.8389 29.3926 89.9274 29.0191 90.0033 28.673C90.1161 28.1599 90.0815 27.7852 89.9009 27.5584C89.72 27.3329 89.3581 27.2409 88.881 27.2791C88.137 27.3388 87.6616 27.6517 87.4321 29.0724L87.3858 29.3676L87.2127 29.1576C86.888 28.6761 86.2545 28.1021 85.0792 28.1021C84.9759 28.1021 84.8698 28.1063 84.7595 28.115C83.5049 28.2185 82.0763 29.0965 81.0308 30.4063C79.81 31.9363 79.2273 33.8729 79.3892 35.8583C79.3982 35.9635 79.4132 36.0644 79.4283 36.1645L79.4367 36.2201L79.3987 36.2621C78.6684 37.0613 77.9244 37.4666 77.1871 37.4666C76.0497 37.4576 75.3964 36.6085 75.3964 35.194C75.3964 32.8118 77.0034 25.6327 77.0034 23.0334C77.0034 20.2674 75.7764 18.7615 73.6454 18.7452L73.6133 18.7449C70.5021 18.7449 68.0772 22.2914 65.7564 29.5872C65.5362 30.2877 65.3222 30.9902 65.1146 31.6946L64.789 32.7922L64.8856 31.6514C65.1014 29.1097 65.2494 26.6369 65.3256 24.3015C65.4412 20.7752 64.9666 18.5057 63.875 17.3638C63.2859 16.748 62.5068 16.4446 61.4917 16.4365H61.4649C57.6574 16.4365 55.8338 22.8865 54.5058 27.4375C54.1052 28.8116 53.3148 31.9102 52.7872 34.0286L53.0998 33.5185C53.3341 30.8508 54.0127 24.1686 53.9681 20.5438C53.9203 16.6552 52.6308 14.9115 49.7874 14.8897H49.7525C48.2335 14.8897 47.1799 15.6477 46.5632 16.2839C45.5735 17.3044 44.9565 18.7968 44.9905 20.0854C45.0118 20.8686 45.4903 21.566 45.8532 21.566C46.0894 21.566 46.2203 21.2491 46.277 21.0607C47.1564 18.1395 48.2949 16.7192 49.7567 16.7192C50.3625 16.7236 50.8134 16.9034 51.1514 17.2677C52.2927 18.4976 52.0853 21.8192 51.7087 27.8492C51.5872 29.7925 51.4496 31.9949 51.3335 34.4997C51.3134 34.9296 51.2869 35.344 51.2617 35.7391C51.1503 37.4783 51.0624 38.853 51.719 38.9556C52.5739 39.0894 53.1303 38.7402 53.4145 37.8908C53.8366 36.63 54.7833 33.1848 56.6153 26.8884C58.373 20.8461 59.7007 18.6482 61.3998 18.6482C63.3624 18.6482 63.5087 22.0335 63.1491 29.1767C63.0724 30.691 62.9699 32.406 62.8912 34.2728C62.88 34.5356 62.8677 34.7894 62.8557 35.0344C62.7804 36.5801 62.7206 37.7997 63.16 38.2674C63.2968 38.413 63.4839 38.485 63.7304 38.4862C64.5813 38.4862 64.8368 37.7374 65.2609 36.4952C65.3359 36.2762 65.4152 36.042 65.5037 35.7966C68.4192 27.7182 70.5753 20.709 73.4687 20.709C74.3369 20.709 75.0114 21.4171 75.0114 22.7982C75.0114 25.986 73.4603 32.1452 73.4603 35.2678C73.4603 36.3866 73.7805 37.3911 74.3864 38.0969C75.0081 38.8213 75.8777 39.208 76.9018 39.2161H76.9241C77.892 39.2161 78.9012 38.7436 79.9227 37.812L80.0188 37.7251L80.0956 37.8294C80.7684 38.738 81.8544 39.2259 83.0267 39.1351C84.8248 38.9943 86.3338 37.3864 86.8952 35.8693L87.0047 35.5729L87.1147 35.8693C87.5309 36.9952 88.4332 38.351 90.3615 38.1945V38.1945Z" fill="#0B0B0A"/>
<path d="M97.0714 21.9858C96.2682 21.9858 95.6194 22.6216 95.6138 23.4028C95.6071 24.19 96.2517 24.8352 97.0499 24.8417L97.061 24.9586V24.8417C97.8525 24.8417 98.5016 24.2065 98.5075 23.4253C98.5139 22.6378 97.8696 21.9923 97.0714 21.9858M147.574 21.9858C146.771 21.9858 146.122 22.6216 146.116 23.4028C146.11 24.19 146.754 24.8352 147.552 24.8417L147.563 24.9586V24.8417C148.356 24.8417 149.004 24.2065 149.01 23.4253C149.016 22.6378 148.372 21.9923 147.574 21.9858" fill="#0B0B0A"/>
<path d="M186.902 38.8864C186.792 38.8866 186.682 38.8649 186.58 38.8225C186.477 38.78 186.384 38.7177 186.306 38.6391C186.227 38.5605 186.165 38.4671 186.123 38.3643C186.081 38.2615 186.059 38.1513 186.059 38.04C186.059 37.9287 186.081 37.8185 186.123 37.7156C186.165 37.6127 186.227 37.5192 186.306 37.4405C186.384 37.3618 186.477 37.2994 186.579 37.2568C186.682 37.2143 186.792 37.1925 186.902 37.1926C187.013 37.1924 187.123 37.2142 187.225 37.2567C187.328 37.2993 187.421 37.3617 187.499 37.4404C187.578 37.5191 187.64 37.6126 187.682 37.7155C187.725 37.8184 187.746 37.9287 187.746 38.04C187.746 38.1513 187.724 38.2615 187.682 38.3643C187.64 38.4671 187.578 38.5605 187.499 38.6391C187.421 38.7177 187.328 38.7801 187.225 38.8225C187.123 38.8649 187.013 38.8866 186.902 38.8864V38.8864ZM186.902 37.0485C186.641 37.049 186.39 37.1536 186.205 37.3395C186.02 37.5254 185.916 37.7773 185.916 38.04C185.916 38.3026 186.021 38.5543 186.205 38.7399C186.39 38.9255 186.641 39.0299 186.902 39.0302C187.164 39.03 187.415 38.9256 187.6 38.74C187.785 38.5544 187.889 38.3027 187.89 38.04C187.889 37.7771 187.785 37.5251 187.6 37.3392C187.415 37.1533 187.164 37.0488 186.902 37.0485V37.0485Z" fill="#0B0C0A"/>
<path d="M186.871 37.978H186.688V37.5924H186.942C187.064 37.5924 187.197 37.6348 187.197 37.7812C187.197 37.9707 187.027 37.978 186.871 37.978V37.978ZM187.34 37.7812C187.34 37.5765 187.239 37.4648 186.982 37.4648H186.544V38.6064H186.688V38.1067H186.892L187.232 38.6064H187.393L187.054 38.1067C187.207 38.0798 187.34 37.992 187.34 37.7812Z" fill="#0B0C0A"/>
</g>
<defs>
<clipPath id="clip0_2_53">
<rect width="46.5758" height="53" fill="white"/>
</clipPath>
<clipPath id="clip1_2_53">
<rect width="142.939" height="35.3333" fill="white" transform="translate(44.9697 12.8485)"/>
</clipPath>
</defs>
</svg>
