<svg width="102" height="102" viewBox="0 0 102 102" fill="none" xmlns="http://www.w3.org/2000/svg">
<g clip-path="url(#clip0_3_93)">
<path d="M86.9083 86.9099H71.7952V63.2416C71.7952 57.5977 71.6944 50.3322 63.9348 50.3322C56.0633 50.3322 54.8588 56.4817 54.8588 62.8308V86.9084H39.7461V38.2368H54.2544V44.8883H54.4576C55.9095 42.4057 58.0077 40.3633 60.5285 38.9788C63.0494 37.5942 65.8986 36.9193 68.7726 37.026C84.0906 37.026 86.9147 47.1017 86.9147 60.2095L86.9083 86.9099V86.9099ZM22.6929 31.5841C17.8491 31.5849 13.9217 27.6587 13.9209 22.8149C13.9202 17.9711 17.846 14.0437 22.6898 14.0429C27.5336 14.0417 31.461 17.9679 31.4618 22.8117C31.4622 25.1378 30.5386 27.3688 28.8941 29.0139C27.2497 30.6591 25.019 31.5836 22.6929 31.5841M30.2497 86.9103H15.1206V38.2368H30.2493V86.9099L30.2497 86.9103ZM94.4428 0.00714899H7.52642C3.41853 -0.0390698 0.0497454 3.25163 -0.000457764 7.35952V94.6384C0.0481516 98.7483 3.41654 102.042 7.52603 101.999H94.4428C98.561 102.05 101.943 98.7563 102 94.6384V7.35274C101.941 3.23688 98.559 -0.0534135 94.4428 0.000375549" fill="#0A66C2"/>
</g>
<defs>
<clipPath id="clip0_3_93">
<rect width="102" height="102" fill="white"/>
</clipPath>
</defs>
</svg>
