<svg width="71" height="56" viewBox="0 0 71 56" fill="none" xmlns="http://www.w3.org/2000/svg">
<g clip-path="url(#clip0_2_21)">
<path d="M14.7469 0C10.6958 0 7.69795 3.50961 7.83219 7.31569C7.96115 10.9722 7.79364 15.7083 6.58913 19.5704C5.38102 23.4437 3.33755 25.8973 0 26.2124V29.7689C3.33755 30.0841 5.38102 32.5376 6.58913 36.4113C7.79364 40.2733 7.96115 45.0089 7.83219 48.6656C7.69795 52.4712 10.6958 55.9813 14.7475 55.9813H56.2583C60.3098 55.9813 63.3068 52.4717 63.1725 48.6656C63.0438 45.0092 63.2111 40.2733 64.4156 36.4113C65.6245 32.5379 67.6624 30.0838 71 29.7689V26.2124C67.6624 25.8973 65.6245 23.4437 64.4159 19.5704C63.2111 15.7088 63.0438 10.9724 63.1725 7.31569C63.3068 3.51016 60.3098 0 56.2583 0H14.7464H14.7469V0ZM48.1358 34.46C48.1358 39.701 44.1864 42.8793 37.6322 42.8793H26.4747C26.1556 42.8792 25.8496 42.7537 25.6239 42.5303C25.3983 42.3069 25.2716 42.004 25.2716 41.6882V14.2932C25.2715 14.1367 25.3026 13.9818 25.3631 13.8373C25.4235 13.6927 25.5122 13.5614 25.6239 13.4508C25.7357 13.3401 25.8684 13.2524 26.0144 13.1925C26.1604 13.1326 26.3169 13.1018 26.475 13.1018H37.5684C43.0335 13.1018 46.6201 16.0322 46.6201 20.5309C46.6201 23.6885 44.2072 26.5154 41.1334 27.0104V27.1754C45.3182 27.6297 48.1358 30.498 48.1358 34.46V34.46ZM36.4152 16.8777H30.0538V25.7718H35.4121C39.5539 25.7718 41.8381 24.1209 41.8381 21.1699C41.8381 18.4048 39.874 16.8777 36.4155 16.8777H36.4152ZM30.0538 29.3009V39.1023H36.6496C40.9617 39.1023 43.2465 37.3896 43.2465 34.1707C43.2465 30.9513 40.8982 29.3004 36.3722 29.3004H30.0538V29.3009Z" fill="#7E13F8"/>
</g>
<defs>
<clipPath id="clip0_2_21">
<rect width="71" height="56" fill="white"/>
</clipPath>
</defs>
</svg>
