<svg width="74" height="74" viewBox="0 0 74 74" fill="none" xmlns="http://www.w3.org/2000/svg">
<path d="M37 42.7211C40.1929 42.7211 42.7812 40.1327 42.7812 36.9398C42.7812 33.7469 40.1929 31.1586 37 31.1586C33.8071 31.1586 31.2188 33.7469 31.2188 36.9398C31.2188 40.1327 33.8071 42.7211 37 42.7211Z" fill="#00D8FF"/>
<path d="M37 50.1951C30.0512 50.3632 23.1199 49.4265 16.465 47.4201C13.3908 46.4456 10.5236 44.9104 8.00819 42.8922C7.04834 42.2027 6.249 41.3138 5.66503 40.2863C5.08105 39.2589 4.72626 38.1173 4.625 36.9398C4.625 33.1173 8.8245 29.371 15.8591 26.9198C22.6919 24.7477 29.8311 23.6951 37 23.8025C44.0733 23.7037 51.1168 24.7373 57.8634 26.8643C60.824 27.8081 63.5941 29.2691 66.045 31.1794C66.9884 31.8367 67.7758 32.6934 68.3513 33.6889C68.9267 34.6844 69.2762 35.7942 69.375 36.9398C69.375 40.9127 64.6806 44.9388 57.1188 47.4409C50.5927 49.3819 43.8076 50.3108 37 50.1951V50.1951ZM37 26.5683C30.1414 26.4766 23.3119 27.4773 16.7679 29.5329C10.2929 31.7922 7.39075 34.8817 7.39075 36.9329C7.39075 39.0789 10.5103 42.4528 17.3599 44.7954C23.7264 46.7052 30.3553 47.5942 37 47.4293C43.5129 47.5458 50.0053 46.6645 56.2516 44.8162C63.3625 42.4598 66.6 39.0812 66.6 36.9398C66.4833 36.205 66.2155 35.5023 65.8135 34.8762C65.4115 34.2501 64.884 33.7142 64.2644 33.3023C62.0715 31.6075 59.5971 30.3127 56.9546 29.4774C50.5004 27.4511 43.764 26.469 37 26.5683V26.5683Z" fill="#00D8FF"/>
<path d="M23.865 65.7745C22.7862 65.7992 21.7202 65.5375 20.7755 65.016C17.464 63.1058 16.317 57.5975 17.7068 50.2784C19.2392 43.2741 21.8943 36.5637 25.5693 30.4071C29.0166 24.2306 33.4299 18.6455 38.6419 13.8635C40.9386 11.77 43.588 10.1 46.4674 8.9309C47.5088 8.44283 48.6449 8.18982 49.7951 8.18982C50.9452 8.18982 52.0813 8.44283 53.1228 8.9309C56.5661 10.915 57.7061 16.9923 56.099 24.7923C54.5193 31.4166 51.9331 37.7595 48.4307 43.5999C45.1047 49.7034 40.8304 55.2399 35.7675 60.0025C33.3874 62.178 30.6252 63.8943 27.6205 65.0645C26.4176 65.511 25.1479 65.751 23.865 65.7745V65.7745ZM27.9651 31.7807C24.4596 37.676 21.9148 44.0918 20.4263 50.7872C19.1475 57.5281 20.3755 61.5819 22.1607 62.6133C24.0107 63.684 28.5016 62.6688 33.9545 57.905C38.7876 53.3424 42.8674 48.0427 46.0419 42.2032C49.3972 36.6197 51.8779 30.5554 53.398 24.2212C54.9103 16.879 53.6038 12.3835 51.7491 11.3151C51.054 11.0488 50.3112 10.9295 49.5677 10.965C48.8241 11.0004 48.096 11.1897 47.4294 11.5209C44.8664 12.5785 42.5101 14.08 40.4688 15.9563C35.4892 20.5369 31.2735 25.8837 27.9813 31.7946L27.9651 31.7807Z" fill="#00D8FF"/>
<path d="M50.128 65.8045C46.9946 65.8045 43.0148 63.9082 38.8708 60.3446C33.5675 55.5191 29.0796 49.8676 25.5809 43.6091C21.9519 37.5373 19.3178 30.924 17.7785 24.0199C17.1109 20.9824 16.9872 17.8506 17.4131 14.7699C17.5116 13.6271 17.8596 12.5198 18.4325 11.5261C19.0055 10.5324 19.7895 9.67645 20.7292 9.0187C24.1679 7.02764 30.0024 9.0742 35.957 14.3606C40.9072 19.0369 45.1108 24.4447 48.4214 30.3955C52.0481 36.3255 54.7098 42.794 56.307 49.5591C57.0034 52.7081 57.1108 55.9587 56.6239 59.1468C56.508 60.3225 56.1393 61.4592 55.5429 62.479C54.9466 63.4989 54.1368 64.3777 53.169 65.0552C52.2397 65.5702 51.1902 65.8288 50.128 65.8045V65.8045ZM27.9743 42.217C31.3307 48.1981 35.6178 53.6068 40.6745 58.2403C45.8754 62.715 50.0009 63.6769 51.7745 62.634C53.6245 61.5587 54.9889 57.1696 53.5829 50.0679C52.0425 43.6089 49.4895 37.4345 46.0187 31.7737C42.8595 26.0783 38.8471 20.9 34.1209 16.4187C28.5154 11.4422 23.969 10.3299 22.1167 11.4029C21.5394 11.8721 21.0656 12.4558 20.7253 13.1173C20.385 13.7789 20.1855 14.5038 20.1395 15.2463C19.7719 17.9937 19.8916 20.7845 20.4934 23.4903C21.9741 30.0928 24.5003 36.4163 27.9766 42.2216L27.9743 42.217Z" fill="#00D8FF"/>
</svg>
