<svg width="322" height="40" viewBox="0 0 322 40" fill="none" xmlns="http://www.w3.org/2000/svg">
<g clip-path="url(#clip0_6_118)">
<path d="M33.2484 0C24.3821 0 18.8401 4.40562 16.6239 13.2169C19.9489 8.81062 23.828 7.15875 28.2612 8.26063C30.79 8.88875 32.5981 10.7125 34.5993 12.7313C37.8589 16.0188 41.6317 19.825 49.8723 19.825C58.7386 19.825 64.2799 15.4194 66.4961 6.60812C63.1717 11.0144 59.2927 12.6663 54.8595 11.5644C52.33 10.9363 50.5226 9.1125 48.5214 7.09375C45.2611 3.80625 41.4889 0 33.2484 0ZM16.6239 19.825C7.75819 19.825 2.21627 24.2306 0 33.0419C3.32503 28.6356 7.20349 26.9838 11.6367 28.0856C14.1661 28.7138 15.9742 30.5375 17.9748 32.5556C21.235 35.8444 25.0078 39.6494 33.2484 39.6494C42.1141 39.6494 47.6554 35.2444 49.8723 26.4331C46.5472 30.8394 42.6681 32.4912 38.2356 31.3894C35.7062 30.7612 33.898 28.9375 31.8969 26.9187C28.6372 23.6312 24.8644 19.825 16.6239 19.825V19.825Z" fill="url(#paint0_linear_6_118)"/>
<path d="M99.7395 16.7063H93.9372V27.8675C93.9372 30.8438 95.9026 30.7975 99.7395 30.6113V35.1219C91.9719 36.0519 88.8834 33.9132 88.8834 27.8675V16.7069H84.5785V11.8707H88.8834V5.62442L93.9372 4.13692V11.8707H99.7395V16.7069V16.7063ZM121.858 11.8707H126.912V35.1219H121.858V31.7738C120.08 34.2388 117.319 35.7269 113.67 35.7269C107.305 35.7269 102.017 30.3788 102.017 23.4963C102.017 16.5675 107.305 11.2663 113.669 11.2663C117.319 11.2663 120.08 12.7538 121.858 15.1725V11.8707V11.8707ZM114.465 30.9369C118.676 30.9369 121.858 27.8213 121.858 23.4963C121.858 19.1713 118.676 16.0557 114.465 16.0557C110.254 16.0557 107.071 19.1713 107.071 23.4963C107.071 27.8213 110.254 30.9369 114.465 30.9369ZM135.335 8.38255C133.556 8.38255 132.106 6.89505 132.106 5.17442C132.108 4.32392 132.449 3.50872 133.054 2.90732C133.659 2.30592 134.479 1.96733 135.335 1.96567C136.191 1.96733 137.011 2.30592 137.616 2.90732C138.221 3.50872 138.562 4.32392 138.564 5.17442C138.564 6.89505 137.113 8.38255 135.335 8.38255V8.38255ZM132.808 35.1219V11.8707H137.861V35.1219H132.808V35.1219ZM143.711 35.1219V1.17505H148.765V35.1219H143.711ZM181.567 11.8707H186.902L179.555 35.1219H174.594L169.728 19.4507L164.815 35.1219H159.855L152.508 11.8707H157.842L162.382 27.9144L167.295 11.8707H172.115L176.981 27.9144L181.567 11.8707ZM193.172 8.38317C191.394 8.38317 189.943 6.89505 189.943 5.17442C189.945 4.32392 190.285 3.50872 190.89 2.90732C191.496 2.30592 192.316 1.96733 193.172 1.96567C194.028 1.96733 194.848 2.30592 195.453 2.90732C196.058 3.50872 196.399 4.32392 196.401 5.17442C196.401 6.89505 194.95 8.38255 193.172 8.38255V8.38317ZM190.645 35.1219V11.8707H195.699V35.1219H190.645V35.1219ZM213.855 11.2657C219.095 11.2657 222.839 14.8 222.839 20.8457V35.1219H217.785V21.3569C217.785 17.8232 215.726 15.9632 212.545 15.9632C209.222 15.9632 206.601 17.9157 206.601 22.6594V35.1219H201.548V11.8707H206.601V14.8469C208.146 12.4282 210.672 11.2657 213.855 11.2657ZM246.797 2.57005H251.851V35.1219H246.797V31.7738C245.019 34.2388 242.259 35.7269 238.609 35.7269C232.244 35.7269 226.957 30.3788 226.957 23.4963C226.957 16.5675 232.244 11.2663 238.608 11.2663C242.258 11.2663 245.019 12.7538 246.797 15.1725V2.57005V2.57005ZM239.404 30.9369C243.615 30.9369 246.797 27.8213 246.797 23.4963C246.797 19.1713 243.615 16.0557 239.404 16.0557C235.193 16.0557 232.01 19.1713 232.01 23.4963C232.01 27.8213 235.193 30.9369 239.404 30.9369ZM268.79 35.7269C261.724 35.7269 256.437 30.3788 256.437 23.4963C256.437 16.5675 261.724 11.2663 268.79 11.2663C273.376 11.2663 277.353 13.6375 279.226 17.265L274.874 19.7763C273.844 17.5907 271.551 16.195 268.744 16.195C264.626 16.195 261.49 19.3113 261.49 23.4963C261.49 27.6813 264.626 30.7975 268.744 30.7975C271.551 30.7975 273.844 29.3557 274.967 27.2163L279.319 29.6813C277.353 33.355 273.376 35.7269 268.79 35.7269ZM287.648 18.2882C287.648 22.5194 300.235 19.9619 300.235 28.565C300.235 33.215 296.165 35.7269 291.111 35.7269C286.432 35.7269 283.063 33.6338 281.565 30.2857L285.917 27.7744C286.666 29.8675 288.537 31.1225 291.111 31.1225C293.357 31.1225 295.089 30.3788 295.089 28.5188C295.089 24.38 282.501 26.705 282.501 18.3813C282.501 14.0094 286.291 11.2663 291.064 11.2663C294.901 11.2663 298.083 13.0332 299.721 16.1025L295.463 18.4738C294.621 16.6607 292.983 15.8238 291.064 15.8238C289.239 15.8238 287.648 16.6138 287.648 18.2882V18.2882ZM309.22 18.2882C309.22 22.5194 321.808 19.9619 321.808 28.565C321.808 33.215 317.737 35.7269 312.683 35.7269C308.004 35.7269 304.634 33.6338 303.137 30.2857L307.489 27.7744C308.237 29.8675 310.109 31.1225 312.683 31.1225C314.929 31.1225 316.66 30.3788 316.66 28.5188C316.66 24.38 304.073 26.705 304.073 18.3813C304.073 14.0094 307.863 11.2663 312.636 11.2663C316.473 11.2663 319.655 13.0332 321.293 16.1025L317.035 18.4738C316.192 16.6607 314.554 15.8238 312.636 15.8238C310.811 15.8238 309.22 16.6138 309.22 18.2882V18.2882Z" fill="#2D3748"/>
</g>
<defs>
<linearGradient id="paint0_linear_6_118" x1="-1.84726" y1="12.6878" x2="55.4035" y2="45.9043" gradientUnits="userSpaceOnUse">
<stop stop-color="#2298BD"/>
<stop offset="1" stop-color="#0ED7B5"/>
</linearGradient>
<clipPath id="clip0_6_118">
<rect width="322" height="40" fill="white"/>
</clipPath>
</defs>
</svg>
